<svg xmlns="http://www.w3.org/2000/svg" width="512" height="512" viewBox="0 0 512 512" version="1.1">
	<path d="M 0 256 L 0 512 128 512 L 256 512 256 508 C 256 505.800, 256.450 504, 257 504 C 257.550 504, 258 502.200, 258 500 C 258 497.800, 258.450 496, 259 496 C 259.550 496, 260 494.261, 260 492.135 C 260 489.784, 260.784 487.274, 262 485.727 C 263.100 484.329, 264 482.468, 264 481.592 C 264 480.717, 264.450 480, 265 480 C 265.550 480, 266 478.200, 266 476 C 266 473.800, 266.450 472, 267 472 C 267.550 472, 268 470.200, 268 468 C 268 465.111, 268.417 464, 269.500 464 C 270.583 464, 271 462.889, 271 460 C 271 457.111, 271.417 456, 272.500 456 C 273.583 456, 274 454.889, 274 452 C 274 449.800, 273.519 448, 272.932 448 C 272.344 448, 272.721 446.763, 273.770 445.250 C 274.818 443.738, 276.260 440.351, 276.975 437.724 C 277.690 435.098, 278.663 432.709, 279.137 432.415 C 279.612 432.122, 280 430.109, 280 427.941 C 280 425.773, 280.450 424, 281 424 C 281.550 424, 282 422.200, 282 420 C 282 416.667, 282.333 416, 284 416 C 285.667 416, 286 415.333, 286 412 C 286 409.800, 286.450 408, 287 408 C 287.550 408, 288 406.200, 288 404 C 288 401.800, 288.450 400, 289 400 C 289.550 400, 290 398.200, 290 396 C 290 393.800, 290.450 392, 291 392 C 291.550 392, 292 390.200, 292 388 C 292 385.800, 292.450 384, 293 384 C 293.550 384, 294 382.200, 294 380 C 294 376.667, 294.333 376, 296 376 C 297.667 376, 298 375.333, 298 372 C 298 369.800, 298.394 368, 298.876 368 C 299.358 368, 299.949 365.627, 300.190 362.727 C 300.430 359.827, 301.386 355.933, 302.313 354.074 C 303.241 352.214, 304 349.187, 304 347.346 C 304 345.506, 304.450 344, 305 344 C 305.550 344, 306 342.200, 306 340 C 306 337.800, 306.432 336, 306.960 336 C 307.488 336, 308.459 334.200, 309.118 332 C 309.777 329.800, 310.695 328, 311.158 328 C 311.621 328, 312 326.200, 312 324 C 312 321.800, 312.450 320, 313 320 C 313.550 320, 314 318.200, 314 316 C 314 312.972, 314.395 312, 315.627 312 C 316.973 312, 317.173 311.152, 316.784 307.108 C 316.404 303.153, 316.668 301.960, 318.157 300.887 C 319.171 300.156, 320 298.758, 320 297.779 C 320 296.801, 320.450 296, 321 296 C 321.550 296, 322 294.200, 322 292 C 322 287.868, 322.209 287.700, 327.250 287.804 C 328.762 287.835, 330 287.442, 330 286.930 C 330 286.419, 329.365 286, 328.588 286 C 326.326 286, 327.463 282.532, 329.841 282.180 C 331.028 282.005, 332 281.479, 332 281.012 C 332 280.545, 332.312 279.339, 332.694 278.332 C 333.355 276.587, 333.304 276.583, 331.623 278.250 C 330.652 279.212, 329.739 280, 329.595 280 C 328.814 280, 329.463 276.396, 330.347 275.820 C 331.956 274.773, 335.235 276.944, 334.589 278.629 C 334.278 279.440, 334.439 279.847, 334.948 279.532 C 335.457 279.218, 335.808 278.101, 335.729 277.050 C 335.650 275.999, 335.228 275.359, 334.792 275.628 C 333.419 276.477, 333.933 274.732, 335.598 272.892 C 336.477 271.921, 336.903 270.652, 336.545 270.072 C 335.692 268.693, 327.777 275.977, 328.391 277.577 C 328.643 278.233, 328.182 279.723, 327.367 280.887 C 326.551 282.051, 326.159 283.448, 326.494 283.990 C 326.829 284.533, 326.481 284.738, 325.719 284.446 C 324.040 283.801, 323.862 281, 325.500 281 C 326.142 281, 326.667 280.323, 326.667 279.496 C 326.667 278.206, 326.409 278.225, 324.857 279.629 C 323.862 280.530, 323.214 281.545, 323.419 281.884 C 324.005 282.857, 321.299 284.957, 320.446 284.190 C 320.024 283.810, 320.003 284.063, 320.399 284.750 C 321.545 286.741, 320.138 288.144, 318.093 287.050 C 316.892 286.407, 315.928 286.472, 315.153 287.247 C 314.519 287.881, 314 288.053, 314 287.629 C 314 286.734, 316.562 284.029, 317.707 283.714 C 318.136 283.596, 318.347 282.892, 318.176 282.150 C 318.006 281.407, 318.330 281.086, 318.897 281.437 C 320.530 282.445, 324.975 274.621, 324.280 271.963 C 323.882 270.439, 324.051 269.913, 324.792 270.372 C 326.129 271.198, 327.929 268.059, 327.235 266.111 C 326.919 265.224, 327.173 264.989, 327.937 265.461 C 328.658 265.906, 329.060 265.663, 328.948 264.850 C 328.509 261.650, 329.068 258.924, 330.040 259.525 C 330.722 259.946, 330.846 259.192, 330.399 257.334 C 329.428 253.289, 329.358 253.339, 327.982 259.073 C 327.299 261.923, 325.696 266.091, 324.421 268.336 C 322.695 271.374, 322.381 272.754, 323.193 273.732 C 324.048 274.763, 323.876 274.899, 322.391 274.364 C 321.351 273.988, 320.810 274.026, 321.190 274.447 C 321.569 274.868, 321.456 275.728, 320.938 276.357 C 320.420 276.985, 317.860 280.200, 315.248 283.500 C 312.637 286.800, 309.705 290.093, 308.733 290.818 C 307.762 291.544, 307.152 292.444, 307.378 292.818 C 307.605 293.193, 307.091 294.147, 306.237 294.937 C 304.845 296.225, 304.758 295.916, 305.396 291.937 C 307.072 281.494, 307.867 273.185, 307.616 268.757 C 307.292 263.050, 300.417 248.626, 298.391 249.404 C 297.607 249.704, 297.308 249.361, 297.628 248.526 C 298.177 247.097, 290.370 234.934, 278.998 219.500 C 270.206 207.568, 267.626 202.981, 264.580 193.868 C 261.408 184.376, 260.371 171.969, 261.919 162.042 C 262.559 157.940, 263.312 154.354, 263.593 154.073 C 264.398 153.268, 276.919 156.816, 282.840 159.527 C 285.795 160.880, 288.684 161.695, 289.261 161.339 C 289.872 160.961, 290.012 161.172, 289.595 161.845 C 289.203 162.480, 289.320 163, 289.854 163 C 290.389 163, 294.578 165.800, 299.163 169.221 C 303.749 172.643, 307.950 175.305, 308.500 175.138 C 309.050 174.970, 309.174 175.159, 308.775 175.558 C 308.055 176.279, 315.301 185.761, 317.757 187.311 C 318.464 187.758, 318.823 188.477, 318.556 188.910 C 318.288 189.343, 319.066 190.767, 320.285 192.075 C 321.503 193.383, 322.321 194.464, 322.103 194.477 C 321.885 194.489, 322.035 195.536, 322.437 196.803 C 323.022 198.644, 323.450 198.872, 324.573 197.939 C 325.773 196.943, 325.734 196.359, 324.306 193.941 C 323.386 192.383, 322.189 191.383, 321.647 191.718 C 321.082 192.068, 320.915 191.664, 321.257 190.774 C 321.585 189.919, 321.009 188.314, 319.978 187.206 C 318.119 185.211, 318.142 185.190, 322.551 184.839 C 324.998 184.645, 327 184.769, 327 185.115 C 327 185.646, 332.775 186.928, 335.270 186.951 C 335.693 186.955, 336.593 187.423, 337.270 187.992 C 341.584 191.620, 347.632 195.982, 348.357 195.990 C 348.828 195.996, 348.940 195.213, 348.605 194.250 C 348.063 192.694, 348.154 192.705, 349.429 194.347 C 350.217 195.363, 350.606 196.863, 350.292 197.681 C 349.827 198.893, 349.565 198.921, 348.876 197.834 C 348.411 197.100, 348.024 196.924, 348.015 197.441 C 348.007 197.959, 347.368 197.517, 346.595 196.460 C 345.282 194.666, 345.224 194.722, 345.719 197.311 C 346.011 198.836, 346.489 199.844, 346.783 199.551 C 347.076 199.257, 347.889 199.493, 348.588 200.073 C 349.528 200.853, 350.152 200.585, 350.976 199.046 C 351.855 197.403, 351.713 196.278, 350.306 193.731 C 346.910 187.580, 346.056 186.917, 343.604 188.524 C 341.631 189.817, 341.429 189.771, 341.429 188.030 C 341.429 186.580, 341.743 186.371, 342.714 187.178 C 343.465 187.801, 344 187.844, 344 187.283 C 344 185.794, 338.631 183.608, 338.193 184.920 C 337.995 185.514, 336.858 185.948, 335.667 185.884 C 333.957 185.792, 333.872 185.671, 335.262 185.308 C 339.588 184.180, 335.079 183, 326.441 183 C 321.248 183, 317 182.608, 317 182.128 C 317 180.761, 324.471 179.752, 337 179.425 C 343.325 179.260, 349.887 178.700, 351.583 178.180 C 353.851 177.485, 354.667 177.556, 354.667 178.447 C 354.667 179.159, 353.753 179.484, 352.451 179.235 C 351.232 179.002, 349.930 179.304, 349.558 179.906 C 348.808 181.120, 350.499 181.402, 356.369 181.042 C 359.053 180.877, 360.023 181.154, 359.535 181.943 C 359.148 182.569, 357.857 182.822, 356.666 182.504 C 355.095 182.086, 355.276 182.369, 357.324 183.534 C 360.078 185.102, 360.223 185.064, 363.160 181.990 C 364.816 180.257, 365.847 178.537, 365.449 178.169 C 365.051 177.801, 364.525 178.063, 364.280 178.750 C 363.545 180.807, 358.208 180.257, 357 178 C 356.274 176.644, 356.263 176, 356.965 176 C 357.534 176, 358 174.200, 358 172 C 358 169.111, 358.417 168, 359.500 168 C 360.708 168, 361 166.444, 361 160 C 361 152.133, 361.042 152, 363.500 152 C 365.750 152, 366 151.600, 366 148 C 366 145.800, 366.450 144, 367 144 C 367.550 144, 368 142.200, 368 140 C 368 137.800, 368.450 136, 369 136 C 369.550 136, 370 134.200, 370 132 C 370 129.800, 370.450 128, 371 128 C 371.550 128, 372 126.261, 372 124.135 C 372 121.784, 372.784 119.274, 374 117.727 C 375.100 116.329, 376 114.468, 376 113.592 C 376 112.717, 376.450 112, 377 112 C 377.550 112, 378 110.200, 378 108 C 378 105.800, 378.450 104, 379 104 C 379.550 104, 380 102.200, 380 100 C 380 97.111, 380.417 96, 381.500 96 C 382.583 96, 383 94.889, 383 92 C 383 89.800, 383.450 88, 384 88 C 384.550 88, 385 86.200, 385 84 C 385 81.800, 385.450 80, 386 80 C 386.550 80, 387 78.200, 387 76 C 387 73.111, 387.417 72, 388.500 72 C 389.583 72, 390 70.889, 390 68 C 390 65.800, 390.450 64, 391 64 C 391.550 64, 392 62.200, 392 60 C 392 57.800, 392.450 56, 393 56 C 393.550 56, 394 54.200, 394 52 C 394 49.111, 394.417 48, 395.500 48 C 396.583 48, 397 46.889, 397 44 C 397 41.111, 397.417 40, 398.500 40 C 399.583 40, 400 38.889, 400 36 C 400 33.800, 400.450 32, 401 32 C 401.550 32, 402 30.200, 402 28 C 402 25.800, 402.450 24, 403 24 C 403.550 24, 404 22.200, 404 20 C 404 16.667, 404.333 16, 406 16 C 407.667 16, 408 15.333, 408 12 C 408 9.800, 408.450 8, 409 8 C 409.550 8, 410 6.200, 410 4 L 410 0 205 0 L 0 0 0 256 M 374.500 97 C 374.840 97.550, 375.316 98, 375.559 98 C 375.802 98, 376 97.550, 376 97 C 376 96.450, 375.523 96, 374.941 96 C 374.359 96, 374.160 96.450, 374.500 97 M 222.615 159.250 C 221.827 160.488, 220.686 163.975, 220.078 167 C 218.730 173.705, 217.198 186.136, 217.792 185.542 C 218.029 185.305, 219.661 181.823, 221.418 177.805 C 223.175 173.787, 225.825 168.596, 227.307 166.270 C 230.287 161.589, 230.584 159.984, 228.800 158.200 C 226.922 156.322, 224.182 156.787, 222.615 159.250 M 231.891 169.250 C 228.675 172.738, 220 185.452, 220 186.676 C 220 187.083, 221.912 185.607, 224.250 183.396 C 226.588 181.185, 231.088 177.477, 234.250 175.156 C 240.087 170.872, 240.954 169.354, 238.800 167.200 C 236.862 165.262, 235.080 165.791, 231.891 169.250 M 347.500 177 C 345.870 177.701, 345.812 177.872, 347.191 177.930 C 348.121 177.968, 349.160 177.550, 349.500 177 C 350.211 175.850, 350.176 175.850, 347.500 177 M 361.948 185.717 C 360.795 187.238, 360.802 187.317, 361.998 186.250 C 364.027 184.441, 365.483 184.713, 363.910 186.608 C 362.776 187.975, 362.862 188.426, 364.479 189.608 C 365.526 190.374, 366.488 191.717, 366.616 192.592 C 367.080 195.751, 367.851 195.112, 367.516 191.846 C 367.328 190.006, 367.128 188.050, 367.071 187.500 C 367.015 186.950, 366.506 187.175, 365.940 188 C 365.121 189.194, 364.971 189.008, 365.205 187.093 C 365.571 184.103, 363.754 183.335, 361.948 185.717 M 344.523 189.964 C 344.159 190.552, 343.330 190.714, 342.681 190.324 C 341.920 189.868, 341.960 190.183, 342.794 191.213 C 344.299 193.072, 347.500 192.919, 347.500 190.988 C 347.500 189.292, 345.387 188.565, 344.523 189.964 M 210.205 193.130 C 206.812 194.109, 199.910 200.510, 194.327 207.855 C 190.932 212.323, 187.313 220.646, 188.325 221.659 C 188.663 221.996, 191.291 221.261, 194.165 220.024 C 207.743 214.183, 215.873 213.581, 219.280 218.163 C 220.578 219.908, 221.049 221.632, 220.648 223.163 C 220.311 224.448, 210.915 234.222, 199.767 244.883 C 174.866 268.697, 172.494 272.266, 172.510 285.899 C 172.521 296.099, 174.513 301.347, 181.075 308.466 C 187.347 315.270, 195.491 320.464, 207.007 325.003 L 212.114 327.016 209.642 323.758 C 204.653 317.181, 200.618 300.428, 202.105 292.466 C 203.321 285.958, 206.018 281.243, 218.957 263 C 241.853 230.720, 243.015 228.507, 242.978 217.239 C 242.943 206.443, 237.762 198.069, 228.522 193.871 C 224.156 191.887, 215.701 191.546, 210.205 193.130 M 323 194.941 C 323 195.459, 323.445 196.157, 323.989 196.493 C 324.555 196.843, 324.723 196.442, 324.382 195.552 C 323.717 193.820, 323 193.503, 323 194.941 M 368 197 C 368 197.550, 368.477 198, 369.059 198 C 369.641 198, 369.840 197.550, 369.500 197 C 369.160 196.450, 368.684 196, 368.441 196 C 368.198 196, 368 196.450, 368 197 M 325.251 199.149 C 324.386 200.014, 324.471 201.010, 325.593 203.180 C 328.700 209.189, 331.261 222.381, 331.549 233.867 C 331.710 240.298, 332.304 245.704, 332.917 246.317 C 333.694 247.094, 334 246.944, 334 245.783 C 334 244.894, 333.524 244.008, 332.943 243.814 C 332.356 243.619, 332.196 242.653, 332.582 241.647 C 333.071 240.374, 333.498 240.188, 334.016 241.026 C 334.498 241.806, 335.833 240.649, 337.877 237.679 C 339.594 235.182, 341 232.851, 341 232.498 C 341 232.146, 341.656 231.201, 342.458 230.400 C 343.259 229.598, 343.661 228.280, 343.351 227.471 C 342.714 225.812, 341 225.468, 341 227 C 341 227.550, 341.477 228, 342.059 228 C 342.641 228, 342.804 228.508, 342.421 229.128 C 341.064 231.324, 339.551 226.548, 339.879 221.104 C 340.173 216.217, 340.029 215.769, 338.352 216.356 C 336.583 216.976, 336.584 216.940, 338.381 215.546 C 341.328 213.261, 340.181 204.412, 336.530 201.273 C 334.698 199.696, 333.139 199.138, 331.777 199.571 C 330.427 199.999, 329.978 199.844, 330.434 199.107 C 331.358 197.611, 326.752 197.648, 325.251 199.149 M 330 203 C 330 203.550, 330.450 204, 331 204 C 331.550 204, 332 203.550, 332 203 C 332 202.450, 331.550 202, 331 202 C 330.450 202, 330 202.450, 330 203 M 347.131 205 C 347.012 210.085, 346.443 213.890, 345.689 214.644 C 345.327 215.006, 345.795 215.861, 346.728 216.543 C 348.173 217.600, 348.224 218.026, 347.070 219.416 C 346.325 220.314, 345.968 221.301, 346.276 221.610 C 346.585 221.919, 347.361 221.194, 348 220 C 348.639 218.806, 348.916 217.583, 348.616 217.283 C 348.316 216.983, 348.730 215.796, 349.535 214.646 C 350.341 213.496, 350.986 212.093, 350.970 211.527 C 350.953 210.962, 350.475 211.297, 349.908 212.271 C 348.761 214.242, 347 213.704, 347 211.382 C 347 210.557, 347.399 210.128, 347.886 210.430 C 348.374 210.731, 349.032 209.986, 349.349 208.775 C 349.666 207.563, 349.544 206.330, 349.078 206.036 C 348.612 205.741, 348.002 204.600, 347.722 203.500 C 347.408 202.266, 347.182 202.841, 347.131 205 M 350 203 C 350 203.550, 350.450 204, 351 204 C 351.550 204, 352 203.550, 352 203 C 352 202.450, 351.550 202, 351 202 C 350.450 202, 350 202.450, 350 203 M 336.600 206.674 C 337.205 207.128, 337.985 208.175, 338.332 209 C 338.777 210.054, 338.896 209.930, 338.732 208.583 C 338.605 207.528, 337.825 206.482, 337 206.257 C 336.035 205.994, 335.893 206.143, 336.600 206.674 M 331.158 210 C 331.158 211.375, 331.385 211.938, 331.662 211.250 C 331.940 210.563, 331.940 209.438, 331.662 208.750 C 331.385 208.063, 331.158 208.625, 331.158 210 M 336.158 210 C 336.158 211.375, 336.385 211.938, 336.662 211.250 C 336.940 210.563, 336.940 209.438, 336.662 208.750 C 336.385 208.063, 336.158 208.625, 336.158 210 M 344.500 218 C 344.160 218.550, 344.359 219, 344.941 219 C 345.523 219, 346 218.550, 346 218 C 346 217.450, 345.802 217, 345.559 217 C 345.316 217, 344.840 217.450, 344.500 218 M 252.571 221.137 C 253.951 229.334, 255.450 234.875, 257.635 239.858 C 258.928 242.804, 259.694 245.686, 259.338 246.262 C 258.961 246.872, 259.173 247.011, 259.845 246.595 C 260.480 246.203, 261 246.274, 261 246.752 C 261 247.231, 261.923 248.614, 263.051 249.824 C 264.179 251.035, 264.785 252.540, 264.397 253.167 C 263.970 253.858, 264.134 254.035, 264.812 253.616 C 265.429 253.235, 268.448 254.971, 271.521 257.474 C 274.594 259.977, 278.205 262.744, 279.546 263.622 C 280.886 264.500, 281.692 265.689, 281.337 266.264 C 280.954 266.884, 281.176 267.010, 281.882 266.573 C 282.598 266.130, 284.652 267.416, 287.036 269.801 C 289.216 271.981, 291 273.503, 291 273.182 C 291 272.862, 291.521 273.121, 292.158 273.758 C 293.034 274.634, 292.974 275.350, 291.908 276.708 C 290.637 278.326, 290.663 278.372, 292.183 277.183 C 293.629 276.052, 294.082 276.196, 295.395 278.199 C 297.740 281.778, 299.992 288.848, 300.070 292.876 C 300.127 295.812, 300.304 296.121, 301 294.500 C 301.473 293.400, 301.891 291.207, 301.930 289.628 C 301.992 287.068, 302.181 286.905, 303.664 288.128 C 305.162 289.364, 305.216 289.290, 304.203 287.388 C 303.475 286.023, 303.289 282.288, 303.675 276.816 C 304.374 266.916, 303.729 264.486, 297.515 253.582 C 295.056 249.267, 293.329 245.277, 293.677 244.714 C 294.025 244.150, 293.822 243.992, 293.224 244.362 C 291.489 245.434, 290.698 243.078, 292.164 241.206 C 293.341 239.703, 293.309 239.649, 291.894 240.753 C 290.511 241.832, 289.786 241.252, 286.695 236.596 C 278.487 224.234, 270.300 218.834, 258.752 218.165 L 252.005 217.775 252.571 221.137 M 331.610 220.750 C 332.664 225.222, 334 225.753, 334 221.700 C 334 219.057, 333.566 218, 332.481 218 C 331.333 218, 331.120 218.672, 331.610 220.750 M 337.675 222.291 C 337.227 223.997, 336.504 224.811, 335.816 224.386 C 335.099 223.943, 334.971 224.144, 335.464 224.941 C 336.576 226.742, 339.313 223.811, 338.800 221.368 C 338.495 219.912, 338.246 220.116, 337.675 222.291 M 344.051 223.095 C 345.071 225, 344.961 225.126, 342.836 224.491 C 340.561 223.812, 340.552 223.833, 342.494 225.311 C 343.773 226.285, 344.715 226.462, 345.121 225.804 C 345.948 224.465, 345.030 221, 343.848 221 C 343.343 221, 343.434 221.943, 344.051 223.095 M 364.500 226 C 364.160 226.550, 364.359 227, 364.941 227 C 365.523 227, 366 226.550, 366 226 C 366 225.450, 365.802 225, 365.559 225 C 365.316 225, 364.840 225.450, 364.500 226 M 337 228.941 C 337 231.514, 335.276 232.501, 334.692 230.262 C 334.257 228.595, 334.226 228.597, 334.116 230.281 C 334.052 231.261, 334.625 232.303, 335.389 232.596 C 336.193 232.904, 336.565 233.946, 336.273 235.065 C 335.994 236.129, 336.255 237, 336.852 237 C 337.449 237, 337.671 236.307, 337.346 235.459 C 336.970 234.478, 337.254 234.024, 338.127 234.209 C 338.955 234.385, 339.383 233.805, 339.206 232.750 C 339.045 231.787, 339.409 231, 340.015 231 C 340.622 231, 340.810 230.502, 340.434 229.893 C 339.956 229.120, 339.467 229.195, 338.809 230.143 C 338.154 231.088, 338.061 230.818, 338.502 229.250 C 338.874 227.927, 338.695 227, 338.067 227 C 337.480 227, 337 227.873, 337 228.941 M 337 231.941 C 337 232.459, 337.445 233.157, 337.989 233.493 C 338.555 233.843, 338.723 233.442, 338.382 232.552 C 337.717 230.820, 337 230.503, 337 231.941 M 360.006 235.150 C 358.353 237.433, 357 240.133, 357 241.150 C 357 242.168, 356.635 243, 356.188 243 C 355.741 243, 354.305 244.463, 352.997 246.250 C 351.688 248.037, 351.308 248.941, 352.151 248.259 C 352.994 247.576, 354.018 247.351, 354.425 247.759 C 354.833 248.166, 355.076 248.050, 354.965 247.500 C 354.538 245.386, 355.047 244.010, 356.166 244.250 C 356.807 244.387, 357.638 243.098, 358.012 241.385 C 358.386 239.672, 359.940 236.634, 361.465 234.635 C 362.990 232.636, 363.962 231, 363.625 231 C 363.288 231, 361.660 232.868, 360.006 235.150 M 333.079 234.583 C 333.127 235.748, 333.364 235.985, 333.683 235.188 C 333.972 234.466, 333.936 233.603, 333.604 233.271 C 333.272 232.939, 333.036 233.529, 333.079 234.583 M 330.563 247.897 C 330.258 248.391, 330.295 250.227, 330.646 251.978 C 331.094 254.220, 331.532 254.768, 332.126 253.831 C 332.590 253.099, 332.969 251.600, 332.969 250.500 C 332.969 248.811, 332.803 248.733, 331.898 250 C 331.037 251.205, 330.923 251.058, 331.320 249.250 C 331.832 246.912, 331.519 246.352, 330.563 247.897 M 348.474 252.699 C 346.919 255.088, 346.897 255.298, 348.325 254.128 C 349.246 253.373, 350 253.125, 350 253.578 C 350 254.030, 350.540 253.860, 351.200 253.200 C 352.039 252.361, 352.084 251.684, 351.349 250.949 C 350.614 250.214, 349.749 250.740, 348.474 252.699 M 344.405 258.146 C 342.510 260.280, 342.512 260.285, 344.750 259.110 C 345.988 258.461, 347 257.495, 347 256.965 C 347 255.544, 346.521 255.762, 344.405 258.146 M 348.500 258 C 348.160 258.550, 348.359 259, 348.941 259 C 349.523 259, 350 258.550, 350 258 C 350 257.450, 349.802 257, 349.559 257 C 349.316 257, 348.840 257.450, 348.500 258 M 241.286 262.451 C 234.639 264.528, 228.677 268.479, 223.282 274.382 C 214.200 284.319, 210.678 295.667, 212.813 308.116 C 213.926 314.605, 218.174 325, 219.712 325 C 220.085 325, 221.648 323.795, 223.185 322.323 C 227.160 318.514, 228.021 320.351, 224.139 324.357 C 221.525 327.053, 221.169 327.895, 222.257 328.798 C 223.316 329.677, 229.694 323.817, 252.430 301.071 C 277.919 275.569, 282.714 270, 279.181 270 C 278.795 270, 277.266 271.125, 275.783 272.500 C 274.301 273.875, 272.505 275, 271.794 275 C 271.083 275, 272.526 273.123, 275 270.830 C 277.475 268.536, 278.923 266.997, 278.217 267.409 C 277.503 267.826, 275.504 267.315, 273.709 266.256 C 265.030 261.135, 250.829 259.469, 241.286 262.451 M 348.721 262.286 C 348.433 263.035, 348.966 263.571, 350 263.571 C 351.034 263.571, 351.567 263.035, 351.279 262.286 C 351.008 261.579, 350.432 261, 350 261 C 349.568 261, 348.992 261.579, 348.721 262.286 M 338.702 265.332 C 336.544 268.626, 338.170 271.293, 340.714 268.630 C 342.016 267.267, 342.161 266.635, 341.250 266.297 C 340.563 266.042, 340 265.373, 340 264.810 C 340 264.247, 340.698 264.054, 341.552 264.382 C 342.442 264.723, 342.843 264.555, 342.493 263.989 C 341.518 262.411, 340.343 262.827, 338.702 265.332 M 338.500 267 C 338.160 267.550, 338.359 268, 338.941 268 C 339.523 268, 340 267.550, 340 267 C 340 266.450, 339.802 266, 339.559 266 C 339.316 266, 338.840 266.450, 338.500 267 M 342 269.941 C 342 270.459, 342.445 271.157, 342.989 271.493 C 343.555 271.843, 343.723 271.442, 343.382 270.552 C 342.717 268.820, 342 268.503, 342 269.941 M 333.441 272.468 C 332.374 273.276, 332.007 273.951, 332.628 273.968 C 333.248 273.986, 334.315 273.325, 335 272.500 C 336.581 270.595, 335.935 270.582, 333.441 272.468 M 285 272.590 C 285 272.681, 285.761 273.373, 286.692 274.128 C 287.623 274.882, 288.070 274.976, 287.686 274.335 C 287.302 273.695, 287.553 272.953, 288.244 272.687 C 288.935 272.421, 288.488 272.254, 287.250 272.315 C 286.012 272.376, 285 272.500, 285 272.590 M 273.051 283.448 C 267.876 288.645, 263.203 292.626, 262.667 292.294 C 262.130 291.962, 261.962 292.130, 262.293 292.666 C 262.625 293.202, 254.367 302.141, 243.944 312.530 C 227.151 329.267, 225.161 331.590, 226.482 332.910 C 227.802 334.231, 228.315 334.073, 230.976 331.523 C 234.795 327.864, 236.273 329.062, 232.630 332.864 L 229.906 335.708 232.347 337.308 C 236.754 340.196, 246.813 343, 252.718 342.988 C 263.917 342.965, 273.311 339.311, 281.568 331.764 C 293.954 320.444, 297.944 300.966, 291.064 285.411 C 289.938 282.866, 289.218 280.457, 289.464 280.058 C 290.621 278.187, 286.190 279.543, 283.760 281.805 C 279.878 285.418, 279.070 283.708, 282.839 279.854 C 285.228 277.410, 285.703 276.347, 284.859 275.330 C 284.252 274.598, 283.464 274, 283.108 274 C 282.752 274, 278.226 278.252, 273.051 283.448 M 264.094 281.571 C 262.220 283.469, 260.953 285.286, 261.277 285.610 C 261.845 286.178, 269 279.621, 269 278.533 C 269 277.281, 267.277 278.348, 264.094 281.571 M 292.405 280.250 L 290.500 282.500 292.750 280.595 C 294.864 278.805, 295.455 278, 294.655 278 C 294.465 278, 293.453 279.012, 292.405 280.250 M 163.311 292 C 155.498 308.069, 154.233 316.078, 158.250 324.030 C 162.279 332.006, 170.469 335.039, 183 333.196 L 188.500 332.388 185 331.573 C 179.186 330.219, 173.332 326.220, 171.494 322.347 C 169.769 318.712, 170.019 310.710, 172.022 305.442 C 172.554 304.043, 172.305 301.676, 171.332 298.877 C 170.495 296.470, 169.497 291.575, 169.114 288 L 168.417 281.500 163.311 292 M 322.012 285.977 C 321.149 287.591, 321.234 287.847, 322.477 287.371 C 323.315 287.049, 324 286.159, 324 285.393 C 324 283.440, 323.253 283.659, 322.012 285.977 M 325 286 C 325 286.550, 325.477 287, 326.059 287 C 326.641 287, 326.840 286.550, 326.500 286 C 326.160 285.450, 325.684 285, 325.441 285 C 325.198 285, 325 285.450, 325 286 M 272.572 289.926 C 270.508 292.040, 269.236 294.028, 269.747 294.344 C 270.257 294.659, 272.364 293.188, 274.428 291.074 C 276.492 288.960, 277.764 286.972, 277.253 286.656 C 276.743 286.341, 274.636 287.812, 272.572 289.926 M 157.835 292.816 C 147.345 309.243, 142.988 320.821, 143.022 332.176 C 143.057 343.920, 147.150 350.428, 157.500 355.196 C 161.964 357.253, 163.947 357.494, 176 357.441 C 190.688 357.376, 200.312 355.435, 217.895 348.992 C 231.328 344.069, 230.997 344.572, 224.122 339.511 C 220.850 337.102, 217.726 334.334, 217.181 333.359 C 216.251 331.697, 215.572 331.785, 206.344 334.760 C 187.831 340.731, 176.046 342.152, 166.127 339.611 C 158.181 337.575, 154.281 334.830, 151.905 329.599 C 148.313 321.688, 149.722 313.238, 157.142 298.196 C 159.938 292.529, 162.054 287.721, 161.845 287.512 C 161.636 287.302, 159.831 289.689, 157.835 292.816 M 253.722 291.604 C 251.698 293.747, 250.532 295.667, 251.132 295.870 C 252.643 296.384, 258.336 290.507, 257.821 288.964 C 257.563 288.190, 255.988 289.205, 253.722 291.604 M 309.333 292.500 C 309.333 293.142, 309.858 293.667, 310.500 293.667 C 311.142 293.667, 311.667 293.142, 311.667 292.500 C 311.667 291.858, 311.142 291.333, 310.500 291.333 C 309.858 291.333, 309.333 291.858, 309.333 292.500 M 262.015 300.485 C 260.157 302.402, 258.950 304.284, 259.333 304.667 C 260.065 305.399, 267 299.191, 267 297.804 C 267 296.177, 265.308 297.087, 262.015 300.485 M 243.015 302.485 C 241.157 304.402, 239.950 306.284, 240.333 306.667 C 241.065 307.399, 248 301.191, 248 299.804 C 248 298.177, 246.308 299.087, 243.015 302.485 M 251.179 311.316 C 249.411 313.139, 248.281 314.947, 248.667 315.333 C 249.403 316.069, 256 310.195, 256 308.804 C 256 307.197, 254.324 308.070, 251.179 311.316 M 234.755 310.438 C 233.807 311.131, 233.324 311.991, 233.682 312.349 C 234.040 312.707, 233.776 313, 233.095 313 C 231.841 313, 229 315.379, 229 316.429 C 229 318.038, 231.983 316.612, 234.891 313.613 C 238.151 310.249, 238.055 308.024, 234.755 310.438 M 293 315.941 C 293 316.459, 293.445 317.157, 293.989 317.493 C 294.555 317.843, 294.723 317.442, 294.382 316.552 C 293.717 314.820, 293 314.503, 293 315.941 M 240.977 321.524 C 239.140 323.419, 237.958 325.292, 238.352 325.685 C 238.745 326.078, 240.675 324.792, 242.641 322.826 C 244.607 320.860, 245.788 318.987, 245.266 318.665 C 244.744 318.342, 242.814 319.629, 240.977 321.524 M 296.015 357.750 C 296.007 358.988, 296.450 360, 297 360 C 298.253 360, 298.253 358.939, 297 357 C 296.216 355.787, 296.028 355.931, 296.015 357.750 M 272.015 437.750 C 272.007 438.988, 272.450 440, 273 440 C 274.253 440, 274.253 438.939, 273 437 C 272.216 435.787, 272.028 435.931, 272.015 437.750" stroke="none" fill="black" fill-rule="evenodd"/>
</svg>