<svg width="24" height="24" viewBox="0 0 24 24" fill="none" xmlns="http://www.w3.org/2000/svg">
<path d="M12 24C18.6274 24 24 18.6274 24 12C24 5.37258 18.6274 0 12 0C5.37258 0 0 5.37258 0 12C0 18.6274 5.37258 24 12 24Z" fill="#325FFF"/>
<path d="M10.7502 17.1006C8.4474 18.1043 6.49912 18.2451 5.81021 17.289C5.2549 16.5193 5.63185 15.1985 6.67748 13.7377C6.69553 13.7117 6.71431 13.6857 6.73308 13.6597L6.64138 13.9016C6.61755 13.9384 6.59444 13.976 6.57277 14.0128C5.9633 15.0187 5.78277 15.8852 6.16478 16.4153C6.68254 17.1338 8.11667 17.0652 9.89019 16.372C10.1256 16.6687 10.4173 16.9172 10.7502 17.1006Z" fill="white"/>
<path d="M10.3288 16.2263C10.3208 16.219 10.3127 16.2102 10.3062 16.2014C10.3069 16.2014 10.3069 16.2007 10.3069 16.2007C10.3142 16.2095 10.3215 16.2175 10.3288 16.2263Z" fill="white"/>
<path d="M11.2622 16.8666C11.2564 16.8652 11.2507 16.863 11.2456 16.8608C11.2514 16.8623 11.2572 16.8645 11.2622 16.8666Z" fill="white"/>
<path d="M14.3897 13.6937C14.389 13.6915 14.3882 13.6893 14.3867 13.6878L14.3875 13.687C14.389 13.6893 14.389 13.6915 14.3897 13.6937Z" fill="white"/>
<path d="M16.697 11.4351C16.6962 11.4416 16.6948 11.4473 16.6934 11.4538C16.6941 11.4481 16.6955 11.4416 16.697 11.4351Z" fill="white"/>
<path d="M15.9417 13.6653C16.4356 13.0241 16.7671 12.2745 16.9115 11.4592C16.9332 11.3386 16.9498 11.218 16.9628 11.0982C17.9442 9.79618 18.3262 8.63429 17.8561 7.98294C17.534 7.53522 16.8566 7.39369 15.9634 7.51717C15.9468 7.49478 15.9294 7.47168 15.9121 7.45001C17.2437 7.16911 18.2799 7.3157 18.745 7.95983C19.566 9.09789 18.3464 11.4433 15.9417 13.6653Z" fill="white"/>
<path d="M7.47028 12.8364C7.44645 12.8913 7.42551 12.9469 7.40674 13.004C7.42551 12.9469 7.44645 12.8906 7.47028 12.8364Z" fill="white"/>
<path d="M8.46892 16.3828C7.94755 16.4377 6.69395 16.7987 6.39066 15.7112C6.21302 15.075 6.6824 14.1023 7.10412 13.4033C7.09906 13.4466 7.09617 13.49 7.09401 13.534C7.07595 13.9182 7.15755 14.2959 7.32436 14.6338C7.17055 15.1227 7.09256 15.6318 7.2767 15.8903C7.65076 16.4196 8.40104 16.3864 8.46892 16.3828Z" fill="white"/>
<path d="M17.263 10.1537C17.263 10.1537 17.4955 8.86618 17.102 8.56217C16.9373 8.43435 16.7099 8.39969 16.5012 8.4033C16.3799 8.14911 16.2369 7.90359 16.0722 7.66818C16.0715 7.66746 16.0715 7.66674 16.0708 7.66602C16.4788 7.66963 17.1699 7.73967 17.4862 8.14189C17.9519 8.73186 17.4688 9.80494 17.263 10.1537Z" fill="white"/>
<path d="M10.7244 6.23551C10.7338 6.11347 10.676 5.99794 10.5568 5.97122C10.4377 5.9445 10.3193 6.0196 10.2925 6.13875C10.2925 6.13875 10.133 6.40738 10.0059 7.73463C10.0059 7.73463 10.2225 7.13889 10.3034 6.98652C10.4131 6.77999 10.7193 6.29834 10.7244 6.23551Z" fill="white"/>
<path d="M11.2836 6.84127C11.3378 6.74668 11.3363 6.63186 11.2511 6.5647C11.1659 6.49754 11.0417 6.51199 10.9745 6.5972C10.9745 6.5972 10.7435 6.75173 10.1304 7.76848C10.1304 7.76848 10.5333 7.37348 10.6575 7.28249C10.8243 7.15973 11.2554 6.89038 11.2836 6.84127Z" fill="white"/>
<path d="M9.40011 13.2279C9.25135 13.4605 9.01161 13.9529 9.03183 14.3523C9.04338 14.5704 9.08165 14.7819 9.14376 14.982C9.14376 14.982 9.14376 14.9827 9.14448 14.9849C9.15387 15.0347 9.31706 15.837 9.70123 16.0781C9.70412 16.0803 9.70773 16.0825 9.71062 16.0839C9.37267 15.9821 8.88668 15.785 8.33787 15.4102C8.19128 15.3271 8.05624 15.226 7.93637 15.1105C7.93565 15.1105 7.93565 15.1098 7.93493 15.1098C7.91037 15.0867 7.88727 15.0628 7.86416 15.039C7.86199 15.0368 7.8591 15.034 7.85694 15.0318C7.836 15.0094 7.81578 14.9863 7.79556 14.9632C7.79484 14.9625 7.79339 14.9603 7.79267 14.9596C7.78256 14.948 7.77245 14.9365 7.76378 14.9249C7.75295 14.9119 7.74212 14.8989 7.73273 14.8859C7.72118 14.87 7.7089 14.8556 7.69807 14.8397C7.68941 14.8282 7.68074 14.8159 7.6728 14.8043C7.66052 14.787 7.64897 14.7697 7.63814 14.7531C7.6273 14.7372 7.61719 14.7213 7.60781 14.7047C7.58759 14.6715 7.56809 14.6382 7.55004 14.6036C7.54137 14.5884 7.53415 14.5732 7.52548 14.5581C7.52332 14.553 7.52043 14.5487 7.51826 14.5444C7.50815 14.5241 7.49804 14.5032 7.48938 14.4823C7.47782 14.4563 7.46699 14.431 7.45616 14.405C7.44894 14.3891 7.44316 14.3732 7.43739 14.3573C7.4345 14.3501 7.43233 14.3436 7.42944 14.3364C7.42872 14.3335 7.42728 14.3306 7.42655 14.327C7.42583 14.3263 7.42583 14.3241 7.42583 14.3234C7.41789 14.3025 7.41067 14.2822 7.40417 14.2606C7.402 14.2548 7.40056 14.249 7.39911 14.2425C7.39261 14.223 7.38756 14.2035 7.38178 14.1833C7.38178 14.1826 7.38106 14.1826 7.38106 14.1819C7.37889 14.1754 7.37745 14.1689 7.37601 14.1616C7.37239 14.1494 7.36878 14.1356 7.3659 14.1226C7.3659 14.1219 7.36517 14.1212 7.36517 14.1198C7.36445 14.1183 7.36445 14.1169 7.36445 14.1154C7.36229 14.1068 7.36012 14.0981 7.35867 14.0894C7.35218 14.0627 7.34712 14.036 7.34207 14.0085C7.3399 13.9977 7.33773 13.9862 7.33629 13.9753C7.32907 13.932 7.32329 13.8887 7.31896 13.8446C7.31751 13.8331 7.31607 13.8208 7.31607 13.81C7.31535 13.8071 7.31535 13.8049 7.31535 13.8027C7.3139 13.7869 7.31246 13.7717 7.31246 13.7565C7.31174 13.7493 7.31174 13.7414 7.31174 13.7341C7.31029 13.7038 7.30957 13.6742 7.30957 13.6439C7.30957 13.6121 7.31029 13.5796 7.31174 13.5478C7.31246 13.524 7.31463 13.5002 7.31679 13.4771C7.31751 13.4633 7.31896 13.4496 7.3204 13.4359C7.32257 13.4135 7.32546 13.3904 7.32835 13.368C7.32907 13.3608 7.32979 13.3536 7.33123 13.3464C7.33412 13.3261 7.33701 13.3052 7.34062 13.285C7.34134 13.2756 7.34351 13.2669 7.34568 13.2575C7.3464 13.2561 7.3464 13.2539 7.3464 13.2525C7.35073 13.2287 7.35579 13.2055 7.36156 13.1817C7.36662 13.1579 7.37312 13.1341 7.37962 13.111C7.3825 13.1008 7.38467 13.0907 7.38828 13.0806C7.39117 13.0683 7.3955 13.0561 7.39911 13.0438C7.402 13.0315 7.40633 13.0192 7.41067 13.007C7.42944 12.9499 7.45038 12.8943 7.47421 12.8394C7.47421 12.8387 7.47494 12.8387 7.47494 12.8387V12.838C7.48649 12.812 7.49732 12.7867 7.5096 12.7607C7.51249 12.7557 7.51465 12.7506 7.51682 12.7456C7.52837 12.721 7.54137 12.6957 7.55509 12.6719C7.56809 12.6474 7.58181 12.6221 7.59625 12.5982C7.6042 12.5845 7.61286 12.5708 7.62153 12.5571C7.63236 12.5398 7.64319 12.5231 7.65402 12.5065C7.6663 12.4885 7.67857 12.4697 7.69157 12.4524C7.69374 12.4495 7.69663 12.4459 7.69879 12.4423C7.71251 12.4235 7.72696 12.4047 7.7414 12.3859L10.1258 10.0845C10.1742 10.0174 10.2046 9.93579 10.2082 9.84625C10.2197 9.60289 10.0298 9.41225 9.78789 9.38409C9.76767 9.38192 9.74528 9.3812 9.72145 9.3812C9.71423 9.3812 9.70629 9.3812 9.69834 9.38192C9.6904 9.38192 9.68246 9.38265 9.67379 9.38265C9.64563 9.38409 9.61602 9.38698 9.58569 9.39131C9.57414 9.39276 9.56114 9.3942 9.54886 9.39637C9.52648 9.39998 9.50337 9.40359 9.48026 9.40864C9.46438 9.41153 9.44849 9.41514 9.4326 9.41875C9.41311 9.42308 9.39361 9.42814 9.37411 9.43247C9.35389 9.43753 9.3344 9.44258 9.31418 9.44836C9.29396 9.45341 9.27374 9.45991 9.2528 9.46569C9.23258 9.47147 9.21163 9.47724 9.19142 9.48374C9.1712 9.49024 9.15025 9.49674 9.12931 9.50396C9.10837 9.51046 9.08815 9.51768 9.06721 9.52418C9.01016 9.54368 8.95384 9.56318 8.89896 9.58412C8.88307 9.58989 8.86791 9.59567 8.85274 9.60217C8.82819 9.61156 8.80291 9.62095 8.77836 9.63033C8.75381 9.63972 8.7307 9.64911 8.70687 9.6585C8.68882 9.66572 8.67004 9.67294 8.65199 9.68088C8.63394 9.6881 8.61589 9.69605 8.59855 9.70327C8.58122 9.71049 8.56389 9.71771 8.54801 9.72493C8.54728 9.72493 8.54728 9.72493 8.54728 9.72493C8.52273 9.73576 8.4989 9.74587 8.47652 9.75526C8.46857 9.75815 8.46063 9.76176 8.45413 9.76465C8.43969 9.77115 8.42597 9.77692 8.41297 9.7827C8.39925 9.78848 8.38697 9.79425 8.37398 9.80003C8.36242 9.80509 8.35015 9.81086 8.33931 9.81592C8.32848 9.82097 8.31837 9.82531 8.30898 9.82964C8.30249 9.83253 8.29599 9.83542 8.29093 9.8383C8.28515 9.84119 8.27938 9.84336 8.27432 9.84552C8.2541 9.85491 8.23966 9.86141 8.23316 9.86502C8.22811 9.86719 8.22666 9.86791 8.22666 9.86791C8.39925 9.12846 8.75887 8.88727 8.75887 8.88727C8.98994 8.3919 9.49398 8.05322 10.0688 8.05322C10.0912 8.05322 10.1143 8.05394 10.1367 8.05467C10.9339 8.0915 11.5506 8.76812 11.5138 9.56534C11.5138 9.56534 11.565 10.0318 11.2285 10.5886C10.8913 11.1461 9.54959 12.9947 9.40011 13.2279Z" fill="white"/>
<path d="M7.47077 12.8364C7.44694 12.8913 7.426 12.9469 7.40723 13.004C7.426 12.9469 7.44694 12.8906 7.47077 12.8364Z" fill="white"/>
<path d="M7.40723 13.004C7.426 12.9469 7.44694 12.8913 7.47077 12.8364C7.44694 12.8906 7.426 12.9469 7.40723 13.004Z" fill="white"/>
<path d="M15.1203 13.0653C15.0828 13.6227 14.9405 14.2373 14.9405 14.2373C14.9405 13.8755 14.9109 13.7347 14.7542 13.3852C14.7347 13.3418 14.7131 13.2949 14.69 13.2443C14.4762 12.7858 13.8061 12.4421 12.9872 11.7496C12.1676 11.0556 12.0903 9.60847 12.0903 9.60847C12.1503 9.60413 12.2095 9.60124 12.2687 9.5998C12.9128 9.58247 13.5223 9.89804 13.8942 10.4245C14.5354 11.33 15.0669 12.1756 15.1153 12.5583C15.1341 12.7056 15.1326 12.8826 15.1203 13.0653Z" fill="white"/>
<path d="M14.5617 14.5069C14.561 14.478 14.5589 14.4491 14.5567 14.4202C14.556 14.4181 14.556 14.4152 14.556 14.413C14.5538 14.3841 14.5509 14.3552 14.548 14.3264C14.5466 14.3112 14.5451 14.296 14.543 14.2809C14.5408 14.2657 14.5386 14.2512 14.5365 14.2361C14.5336 14.2137 14.5293 14.1913 14.5256 14.1696C14.522 14.1473 14.5177 14.1249 14.5134 14.1032C14.5083 14.0808 14.504 14.0592 14.4982 14.0368C14.4931 14.0144 14.4874 13.9927 14.4816 13.9703C14.4809 13.966 14.4794 13.961 14.4787 13.9566C14.4715 13.9314 14.4643 13.9068 14.4563 13.8815C14.4534 13.87 14.4491 13.8584 14.4455 13.8469C14.4419 13.8339 14.4375 13.8209 14.4325 13.8086C14.431 13.8043 14.4296 13.7992 14.4274 13.7949C14.4274 13.7941 14.4274 13.7934 14.4267 13.7927C14.4173 13.7645 14.4065 13.7371 14.3957 13.7089C14.3942 13.706 14.3928 13.7017 14.3913 13.6981C14.3906 13.6959 14.3899 13.6945 14.3892 13.6931C14.3884 13.6909 14.3877 13.6887 14.3863 13.6873C14.3213 13.5241 14.2375 13.3674 14.135 13.2186L13.7804 13.5732L13.6634 13.4569L14.0353 13.085C13.9949 13.0338 13.9523 12.9839 13.9068 12.9355L10.9316 15.9107L10.4702 16.3721C10.4709 16.3728 10.4717 16.3728 10.4724 16.3736C10.4919 16.3916 10.5114 16.4097 10.5316 16.427C10.5323 16.4277 10.5338 16.4292 10.5345 16.4299C10.5395 16.4349 10.546 16.4393 10.5511 16.4436C10.5735 16.4631 10.5966 16.4819 10.6197 16.4999L10.6204 16.4992L10.9836 16.136L11.1006 16.2522L10.754 16.5989C10.78 16.6169 10.806 16.6335 10.832 16.6501C10.8587 16.6667 10.8854 16.6826 10.9122 16.6985C10.9381 16.7144 10.9649 16.7288 10.9909 16.7426C10.9916 16.7433 10.9923 16.7433 10.993 16.7433C11.0205 16.7577 11.0479 16.7714 11.0761 16.7852C11.1035 16.7989 11.1317 16.8112 11.1598 16.8234C11.188 16.8357 11.2154 16.848 11.2443 16.8581C11.2501 16.8603 11.2559 16.8624 11.2609 16.8639H11.2617C12.1304 17.1968 13.1507 17.0134 13.8497 16.3129C14.2657 15.8977 14.4989 15.3698 14.5502 14.8268C14.5574 14.7495 14.5617 14.6715 14.5617 14.5935C14.5639 14.5668 14.5632 14.5365 14.5617 14.5069ZM13.4894 13.6331L13.6064 13.7494L13.1558 14.2L13.0388 14.0837L13.4894 13.6331ZM12.8633 14.2592L12.9803 14.3755L12.5297 14.8261L12.4127 14.7098L12.8633 14.2592ZM12.238 14.8853L12.3549 15.0015L11.9043 15.4521L11.8675 15.4153L11.7881 15.3366L12.238 14.8853ZM11.1613 15.962L11.5086 15.6146L11.6119 15.5113L11.6422 15.5417L11.7289 15.6276L11.2783 16.0782L11.1613 15.962Z" fill="white"/>
<path d="M13.643 12.6905L13.2783 13.0552L13.1621 12.9382L13.5087 12.5916C12.5613 11.9395 11.2549 12.0341 10.4122 12.8761C9.57024 13.7188 9.47565 15.0251 10.1277 15.9733L10.483 15.618L10.5993 15.735L10.2274 16.1069C10.2534 16.1386 10.2794 16.1704 10.3075 16.2007C10.3147 16.2087 10.322 16.2174 10.3292 16.2253C10.3386 16.2354 10.3472 16.2455 10.3566 16.2556L10.4931 16.1191L13.7925 12.8198C13.7434 12.775 13.6935 12.7317 13.643 12.6905ZM10.774 15.5595L10.6578 15.4425L11.1084 14.9919L11.2246 15.1089L10.774 15.5595ZM11.4001 14.9334L11.2838 14.8164L11.7344 14.3658L11.8507 14.4828L11.4001 14.9334ZM12.0262 14.3073L11.9099 14.1904L12.3605 13.7398L12.4768 13.8567L12.0262 14.3073ZM12.6523 13.6813L12.536 13.5643L12.9866 13.1137L13.1029 13.2307L12.6523 13.6813Z" fill="white"/>
<path d="M16.774 10.5691C16.774 10.85 16.7495 11.1345 16.6989 11.4212C16.6982 11.4255 16.6975 11.4298 16.6967 11.4342L16.696 11.4349C16.6953 11.4406 16.6938 11.4471 16.6931 11.4529C16.6917 11.4623 16.6902 11.471 16.6881 11.4789C16.6852 11.4977 16.6808 11.5165 16.6772 11.5352C16.6642 11.5981 16.6505 11.6609 16.6354 11.7237C16.6325 11.736 16.6296 11.7483 16.626 11.7605C16.6202 11.7851 16.6137 11.8104 16.6072 11.8349C16.5992 11.8638 16.5913 11.8927 16.5826 11.9223C16.5754 11.9483 16.5675 11.9743 16.5595 12.0003C16.4953 12.2119 16.4158 12.4177 16.3248 12.6148C16.3155 12.6365 16.3046 12.6574 16.2945 12.6791C16.2808 12.7087 16.2664 12.7383 16.2512 12.7672C16.1624 12.9434 16.0634 13.1116 15.9551 13.2741C15.9371 13.3008 15.919 13.3275 15.9002 13.3543C15.8634 13.4077 15.8251 13.4597 15.7861 13.511C15.7659 13.537 15.7471 13.5622 15.7269 13.5875C15.6865 13.6381 15.6461 13.6879 15.6034 13.7363C15.5413 13.8092 15.4764 13.8807 15.4099 13.9493C15.4092 13.9493 15.4092 13.95 15.4092 13.95C15.3868 13.9724 15.3644 13.9955 15.3413 14.0186C15.2958 14.0641 15.2496 14.1082 15.2027 14.1515C15.2027 14.1515 15.2084 14.1255 15.2186 14.0786C15.2193 14.0728 15.2214 14.0656 15.2229 14.0583C15.2279 14.0316 15.2352 13.9991 15.2431 13.9623C15.2438 13.9558 15.2453 13.95 15.2467 13.9435C15.2518 13.9175 15.2568 13.8901 15.2626 13.8605C15.264 13.8533 15.2655 13.846 15.2669 13.8381C15.2698 13.8258 15.272 13.8121 15.2742 13.7991C15.277 13.7839 15.2792 13.7688 15.2821 13.7536C15.2857 13.7334 15.2893 13.7132 15.2929 13.6929C15.298 13.6648 15.3023 13.6352 15.3074 13.6056C15.3189 13.5362 15.3298 13.4633 15.3399 13.3882C15.3413 13.3781 15.3428 13.3673 15.3442 13.3572C15.3471 13.3377 15.3493 13.3182 15.3514 13.2972C15.3536 13.2792 15.3558 13.2611 15.3586 13.2438C15.3745 13.1008 15.3868 12.9542 15.3911 12.8163C15.3911 12.8156 15.3911 12.8156 15.3911 12.8156C15.394 12.6921 15.3904 12.5751 15.3774 12.4733C15.3175 11.996 14.5029 10.7965 13.6646 9.65846C13.5801 9.54364 13.4956 9.42955 13.4111 9.31762C13.3692 9.26129 13.3288 9.20497 13.2912 9.14792C13.2789 9.12987 13.2667 9.11181 13.2558 9.09448C13.2479 9.08293 13.2399 9.07065 13.2334 9.0591C13.2204 9.03888 13.2082 9.01938 13.1966 8.99916C13.1822 8.97605 13.1685 8.95367 13.1555 8.93056C13.1374 8.90023 13.1201 8.86846 13.1027 8.83741C13.0702 8.77891 13.0399 8.7197 13.011 8.66121C13.0038 8.64532 12.9959 8.62944 12.9886 8.61355C12.9785 8.59189 12.9684 8.57094 12.959 8.55C12.959 8.54928 12.9583 8.54856 12.9583 8.54784C12.928 8.47923 12.8998 8.41136 12.8746 8.34348C12.8551 8.29221 12.837 8.24166 12.8204 8.19111C12.811 8.16511 12.8031 8.13912 12.7951 8.1124C12.7785 8.05968 12.7633 8.00841 12.7496 7.95642C12.7446 7.93837 12.7402 7.92176 12.7359 7.90443C12.7135 7.8185 12.6955 7.73328 12.6803 7.65024C12.676 7.62641 12.6716 7.60258 12.668 7.57875C12.663 7.54914 12.6586 7.52026 12.6543 7.49137C12.6514 7.47116 12.6485 7.45166 12.6464 7.43216C12.6435 7.40833 12.6406 7.38522 12.6377 7.36212C12.6348 7.33756 12.6326 7.31446 12.6305 7.2899C12.6283 7.26607 12.6261 7.24297 12.6247 7.21986C12.6225 7.19458 12.6211 7.16931 12.6196 7.14476C12.6189 7.12526 12.6175 7.10576 12.6168 7.08699C12.5821 6.32804 12.7612 5.7915 12.7612 5.7915C12.798 5.798 12.8341 5.80522 12.8709 5.81245C12.8861 5.81533 12.9013 5.81822 12.9157 5.82183C12.9735 5.83339 13.0305 5.84639 13.0876 5.86083C13.3735 5.9316 13.6479 6.02619 13.9086 6.1439C13.9411 6.15834 13.9736 6.17351 14.0061 6.18867C14.0704 6.219 14.1339 6.25149 14.1968 6.28471C14.2119 6.29193 14.2271 6.3006 14.2422 6.30926C14.2646 6.32082 14.2863 6.33382 14.308 6.34609C14.347 6.36848 14.386 6.39014 14.4235 6.41325C14.4466 6.42697 14.4697 6.44141 14.4921 6.45585C14.5224 6.47463 14.552 6.49413 14.5816 6.51362C14.6141 6.53529 14.6466 6.55695 14.6791 6.57934C14.7037 6.59667 14.7282 6.614 14.7521 6.63133C14.8033 6.66816 14.8539 6.70643 14.9037 6.74542C14.9218 6.75914 14.9405 6.77359 14.9586 6.78875C14.9759 6.80247 14.9925 6.81619 15.0091 6.82991C15.0344 6.85013 15.059 6.87107 15.0835 6.89201C15.1203 6.92307 15.1565 6.95556 15.1918 6.98806C15.2106 7.00467 15.2287 7.022 15.2474 7.03933C15.2698 7.05955 15.2922 7.08121 15.3139 7.10287C15.3449 7.1332 15.376 7.16425 15.4056 7.19531C15.428 7.21769 15.4489 7.2408 15.4706 7.26391C15.4951 7.28918 15.5182 7.3159 15.5413 7.3419C15.5695 7.37295 15.5969 7.40472 15.6244 7.43722C15.6424 7.45888 15.6605 7.48054 15.6778 7.50221C15.693 7.52026 15.7067 7.53759 15.7212 7.55564C15.7515 7.59392 15.7811 7.63291 15.8107 7.6719C15.8143 7.67696 15.8179 7.68201 15.8222 7.68779C15.8374 7.70801 15.8511 7.72751 15.8656 7.74773C15.9002 7.79539 15.9335 7.84377 15.966 7.89287C15.9811 7.91526 15.9948 7.93764 16.0093 7.95931C16.0252 7.98458 16.0411 8.00986 16.0569 8.03513C16.0743 8.06257 16.0902 8.09001 16.1068 8.11818C16.1645 8.21638 16.2194 8.31748 16.27 8.4193C16.2938 8.46696 16.3162 8.51462 16.3378 8.56228C16.3508 8.59044 16.3631 8.61788 16.3747 8.64604C16.3819 8.66193 16.3884 8.67782 16.3949 8.6937C16.4397 8.79841 16.4801 8.90529 16.5162 9.0136C16.5263 9.04249 16.5364 9.07137 16.5451 9.10098C16.5458 9.10387 16.5473 9.10676 16.548 9.11037C16.5581 9.14142 16.5682 9.17247 16.5769 9.20424C16.5884 9.24324 16.6 9.28295 16.6108 9.32339C16.6209 9.36239 16.631 9.40138 16.6397 9.44038C16.6426 9.44976 16.6447 9.45843 16.6469 9.46782C16.6563 9.50898 16.6657 9.54869 16.6736 9.59058C16.683 9.63246 16.691 9.67507 16.6982 9.71767C16.6989 9.72056 16.6989 9.72417 16.6996 9.72706C16.7068 9.76894 16.7141 9.81155 16.7206 9.85415C16.722 9.86426 16.7235 9.87509 16.7249 9.88665C16.7292 9.91481 16.7336 9.94442 16.7365 9.9733C16.7393 9.98919 16.7408 10.0051 16.7422 10.021C16.748 10.0665 16.7523 10.1119 16.7559 10.1582C16.7596 10.2 16.7632 10.2427 16.7653 10.286C16.7682 10.3293 16.7704 10.3726 16.7711 10.416C16.7718 10.4217 16.7718 10.4275 16.7718 10.434C16.774 10.4781 16.774 10.5243 16.774 10.5691Z" fill="white"/>
</svg>
