<svg width="31" height="28" viewBox="0 0 31 28" fill="none" xmlns="http://www.w3.org/2000/svg">
<path d="M2.44796 11.8378C2.44091 11.7814 2.44444 11.7249 2.45855 11.6685C2.47267 11.6121 2.49735 11.5627 2.53262 11.5168L9.39419 2.55975C9.42946 2.51388 9.47179 2.47508 9.52118 2.44685C9.57057 2.41863 9.62702 2.40099 9.68347 2.39041C9.73991 2.38335 9.79988 2.38688 9.8528 2.40099C9.90924 2.4151 9.95863 2.43979 10.0045 2.47507L28.342 16.5227C28.4337 16.5933 28.4937 16.6991 28.5078 16.812C28.5219 16.9249 28.4937 17.0413 28.4231 17.1331L21.5615 26.0901C21.5263 26.136 21.4839 26.1748 21.4345 26.203C21.3852 26.2312 21.3287 26.2489 21.2723 26.2595C21.2158 26.2665 21.1594 26.263 21.1029 26.2489C21.0465 26.2348 20.9971 26.2101 20.9512 26.1748L2.61378 12.1271C2.56792 12.0918 2.52911 12.0495 2.50089 12.0001C2.47266 11.9507 2.45502 11.8943 2.44796 11.8378ZM10.7171 6.77192C9.97627 6.94478 9.19663 6.93421 8.44521 6.73665C9.19663 6.93421 9.97627 6.94478 10.7171 6.77192ZM24.1016 15.5385C23.9428 16.1347 23.904 16.7521 23.9851 17.3624C23.9887 17.3765 23.9887 17.3906 23.9922 17.4012C24.0804 18.0256 24.2921 18.6218 24.6166 19.1615L22.5282 21.8885L24.6166 19.158C24.2921 18.6183 24.0804 18.0221 23.9922 17.3976C23.9887 17.3835 23.9887 17.3694 23.9851 17.3553C23.904 16.7485 23.9428 16.1312 24.1016 15.5385L11.9977 6.26745L24.1016 15.5385ZM20.4291 21.7792C19.8894 21.8744 19.3673 22.0614 18.891 22.3366C19.3673 22.0614 19.8894 21.8744 20.4291 21.7792ZM0.768728 12.0601C0.804006 12.3388 0.895732 12.6034 1.03684 12.8468C1.17796 13.0902 1.36493 13.3019 1.59071 13.4747L19.9246 27.5189C20.1469 27.6882 20.3974 27.8117 20.6655 27.8858C20.9407 27.9598 21.2193 27.9775 21.498 27.9387C21.7767 27.9034 22.0413 27.8117 22.2847 27.6706C22.5317 27.5295 22.7398 27.3425 22.9092 27.1202L29.7707 18.1667C30.1164 17.7116 30.2646 17.1542 30.1905 16.5933C30.1164 16.0324 29.8307 15.535 29.3827 15.1892L11.0381 1.13804C10.8159 0.968711 10.5654 0.845235 10.2938 0.771151C10.0186 0.697068 9.73991 0.679431 9.46122 0.718237C9.18252 0.753515 8.91794 0.84523 8.67452 0.986342C8.43111 1.12745 8.21943 1.3109 8.0501 1.53668L1.19207 10.4902C1.02273 10.7125 0.895741 10.9629 0.825185 11.2381C0.751101 11.5027 0.73345 11.7814 0.768728 12.0601Z" fill="white"/>
<path d="M6.33179 9.52721L8.46257 6.74731C9.66202 7.06834 10.9391 6.899 12.0115 6.27811L24.1154 15.5491C23.9531 16.1559 23.9143 16.7909 24.0025 17.4154C24.0907 18.0398 24.3024 18.636 24.6269 19.1757L22.5385 21.9062C21.9352 21.7334 21.3002 21.684 20.6758 21.7616C20.0514 21.8392 19.4481 22.0403 18.9048 22.3543L6.80099 13.0832C7.12202 11.8767 6.95268 10.5997 6.33179 9.52721Z" fill="#1AB08D"/>
<path d="M19.0988 13.8488C18.8342 11.8485 16.9998 10.4445 14.9995 10.709C12.9993 10.9736 11.5952 12.8081 11.8598 14.8083C12.1244 16.8086 13.9588 18.2127 15.9591 17.9481C17.9558 17.6835 19.3634 15.8455 19.0988 13.8488Z" fill="#31D0AA"/>
<path d="M21.5613 26.0937L28.4229 17.1402C28.4934 17.0485 28.5252 16.9321 28.5075 16.8192C28.4934 16.7063 28.4335 16.6004 28.3417 16.5299L10.0043 2.48223C9.9584 2.44695 9.90549 2.42225 9.85257 2.40814C9.79613 2.39403 9.73969 2.3905 9.68325 2.39756C9.6268 2.40461 9.57035 2.42225 9.52096 2.454C9.47157 2.48222 9.42924 2.52103 9.39396 2.56689L2.5324 11.524C2.49712 11.5698 2.47244 11.6227 2.45833 11.6757C2.44422 11.7321 2.44068 11.7885 2.44774 11.845C2.45479 11.9014 2.47245 11.9579 2.5042 12.0073C2.53242 12.0567 2.5712 12.099 2.61707 12.1343L20.9545 26.1819C21.0004 26.2172 21.0533 26.2419 21.1062 26.256C21.1627 26.2701 21.2191 26.2737 21.2756 26.2666C21.332 26.2596 21.3885 26.2419 21.4379 26.2102C21.4872 26.1784 21.5296 26.1396 21.5613 26.0937ZM8.44499 6.73675C9.64444 7.05778 10.9215 6.88844 11.9939 6.26754L24.0978 15.5386C23.9355 16.1454 23.8967 16.7804 23.9849 17.4048C24.0731 18.0292 24.2848 18.6254 24.6093 19.1652L22.5209 21.8957C21.9176 21.7228 21.2826 21.6734 20.6582 21.751C20.0338 21.8286 19.4305 22.0297 18.8872 22.3437L6.78339 13.0727C7.10442 11.8732 6.9351 10.5961 6.31421 9.52017L8.44499 6.73675Z" fill="#31D0AA"/>
<path d="M17.5255 12.3283L17.1798 12.7587C17.3915 12.9562 17.5573 13.1926 17.6737 13.4537C17.7831 13.7077 17.8395 13.9828 17.8395 14.258L17.0034 14.5226C16.9964 14.3039 16.9646 14.0887 16.9046 13.8805C16.8553 13.7112 16.7777 13.5524 16.6718 13.4113L15.9698 14.2933C16.2238 14.5261 16.379 14.8436 16.4108 15.1858C16.4425 15.528 16.3473 15.8702 16.1426 16.1454C16.0051 16.3323 15.811 16.4699 15.5888 16.5405C15.3665 16.6146 15.1266 16.6322 14.8973 16.5934C14.6469 16.5546 14.4035 16.4629 14.1883 16.3253L13.906 16.7063L13.391 16.3112L13.6944 15.9231C13.3451 15.5739 13.144 15.1011 13.137 14.6073L13.9131 14.385C13.9166 14.706 14.0225 15.0165 14.2094 15.274L14.8868 14.4132C14.661 14.1381 14.5022 13.81 14.4281 13.4607C14.3999 13.309 14.4034 13.1573 14.4423 13.0092C14.4811 12.861 14.5481 12.7234 14.6469 12.6035C14.7527 12.4518 14.8903 12.3248 15.049 12.2295C15.2078 12.1343 15.3877 12.0743 15.5711 12.0567C15.9627 12.0284 16.3543 12.1343 16.6789 12.3565L16.9999 11.9261L17.5255 12.3283ZM15.3736 15.6056C15.4089 15.5598 15.4371 15.5068 15.4512 15.4504C15.4653 15.3939 15.4653 15.334 15.4547 15.2775C15.4194 15.1329 15.3595 14.9988 15.2748 14.8789L14.6857 15.6691C14.8056 15.7397 14.9397 15.7714 15.0808 15.7679C15.1408 15.7644 15.1972 15.7503 15.2466 15.722C15.296 15.6938 15.3383 15.655 15.3736 15.6056ZM15.4935 13.048C15.4547 13.0974 15.4265 13.1538 15.4124 13.2173C15.3983 13.2808 15.3983 13.3443 15.4124 13.4043C15.4477 13.556 15.5147 13.7006 15.6064 13.8276L16.2097 13.0092C16.0897 12.9351 15.9486 12.8927 15.804 12.8963C15.744 12.8963 15.684 12.9069 15.6311 12.9351C15.5747 12.9598 15.5288 12.9986 15.4935 13.048Z" fill="#086650"/>
</svg>
