<svg width="26" height="24" viewBox="0 0 26 24" fill="none" xmlns="http://www.w3.org/2000/svg">
<path d="M11.4376 22.4795C7.65223 22.4759 4.53366 20.7508 3.10138 17.8651L1.97601 15.6038L2.01129 15.5861C0.307368 11.1341 3.0414 5.58837 8.39659 2.92488C10.2875 1.98296 12.3442 1.48555 14.3409 1.48555C18.1333 1.48555 21.2554 3.21064 22.6912 6.0999L23.4991 7.72269C24.7021 10.1463 24.5398 13.0496 23.0581 15.7414L23.0616 15.7449L22.8676 16.08C22.7653 16.2529 22.6559 16.4258 22.543 16.5916L21.8657 17.5864L21.841 17.537L21.6505 17.7628C21.6011 17.8192 21.5553 17.8792 21.5023 17.9356L20.7862 18.7259L20.7721 18.6906L20.765 18.6976C20.638 18.8211 20.504 18.9411 20.3664 19.061L20.0313 19.3503L20.0348 19.3538L19.9678 19.4032L19.6785 19.6537L19.6679 19.6325L19.5621 19.7136C19.428 19.8124 19.2904 19.9147 19.1493 20.01L18.4649 20.4827L18.4508 20.4545C18.3767 20.5004 18.3026 20.5427 18.225 20.5885C18.1121 20.6591 17.9816 20.7332 17.8475 20.8073L17.1702 21.1706L17.1632 21.153C17.1173 21.1742 17.0714 21.1953 17.0256 21.2165L16.9691 21.2447C16.828 21.3153 16.6869 21.3717 16.5423 21.4317L16.2953 21.534L16.3059 21.5552L15.9813 21.661L15.8755 21.7033L15.872 21.6963L15.5263 21.8092C15.4698 21.8268 15.0324 21.9609 15.0324 21.9609L15.05 21.9891L14.6337 22.0773L14.475 22.1231L14.4679 22.1125L14.034 22.2043C13.9282 22.2254 13.8223 22.2466 13.72 22.2678L13.5084 22.3031L13.2685 22.3419L13.2755 22.3701L12.4006 22.4371C12.2525 22.4477 12.0867 22.4583 11.9244 22.4653L11.4376 22.483V22.4795Z" fill="#FFEAA2"/>
<path d="M14.341 2.19464C17.7135 2.19464 20.7051 3.69043 22.0598 6.41741L22.8676 8.0402C24.0565 10.432 23.7284 13.2507 22.2573 15.7237L22.2609 15.7273C22.1656 15.886 22.0668 16.0483 21.961 16.2L21.9575 16.1965C21.7599 16.4928 21.5447 16.7821 21.3154 17.0643L21.3189 17.0678C21.2801 17.1172 21.2378 17.1631 21.199 17.2089C21.1884 17.2231 21.1743 17.2372 21.1637 17.2513C21.1037 17.3218 21.0473 17.3924 20.9838 17.4629L20.9803 17.4594C20.758 17.7099 20.5217 17.9533 20.2712 18.1897L20.2747 18.1932C20.1548 18.3096 20.0313 18.419 19.9043 18.5283L19.9008 18.5248C19.6573 18.74 19.4033 18.9446 19.1352 19.1422L19.1388 19.1492C19.0118 19.2445 18.8777 19.3397 18.7436 19.435L18.7401 19.4279C18.4579 19.6219 18.1686 19.8089 17.8652 19.9818C17.7488 20.0523 17.6324 20.1229 17.5089 20.1864V20.1829C17.3678 20.2605 17.2232 20.3346 17.0785 20.4086C16.9374 20.4792 16.7928 20.5462 16.6517 20.6097V20.6132C16.507 20.6838 16.3589 20.7438 16.2107 20.8038V20.8002C15.9108 20.9237 15.6074 21.0366 15.304 21.1354L15.3076 21.1389C15.2335 21.1636 15.1594 21.1847 15.0853 21.2059C15.0818 21.2059 15.0747 21.2094 15.0712 21.2094C14.9971 21.2341 14.9195 21.2553 14.8454 21.28L14.8419 21.2765C14.5244 21.3682 14.2069 21.4458 13.8894 21.5129C13.7906 21.534 13.6918 21.5517 13.5931 21.5728C13.5613 21.5799 13.5296 21.5834 13.4978 21.5905C13.4661 21.5975 13.4343 21.601 13.399 21.6081C13.0604 21.6645 12.7252 21.7069 12.3901 21.7316C12.3795 21.7316 12.3724 21.7316 12.3619 21.7316C12.2066 21.7422 12.0514 21.7527 11.8997 21.7598C11.8891 21.7598 11.8786 21.7598 11.868 21.7633C11.7269 21.7668 11.5893 21.7704 11.4517 21.7704C8.07912 21.7704 5.08755 20.2746 3.73288 17.5476L2.92502 15.9248L2.92855 15.9213C0.840092 11.7162 3.42596 6.17752 8.7106 3.55284C10.5662 2.63209 12.51 2.19464 14.341 2.19464ZM14.341 0.783524V2.19464V0.783524C12.2349 0.783524 10.0723 1.30564 8.08265 2.29342C2.63221 5.00276 -0.23941 10.5696 1.15054 15.244L1.04118 15.2969L1.66207 16.5563L2.46993 18.1791C3.96924 21.1989 7.14073 23.0439 11.0037 23.178L11.0213 23.2132L11.9279 23.178H11.9491H11.9738C12.1326 23.1709 12.2948 23.1638 12.4571 23.1497C12.4818 23.1497 12.503 23.1462 12.5241 23.1462L12.5418 23.1427C12.5559 23.1427 12.57 23.1392 12.5841 23.1392L12.5982 23.1639L13.0851 23.0898L14.5738 22.9486L14.5244 22.8499L14.789 22.7723L15.9708 22.5218L15.932 22.4442L16.1754 22.3454L16.9127 22.1055H16.9162L17.2867 21.9856L17.2584 21.9256L18.151 21.4529L18.1686 21.4423L18.2074 21.5199L19.4069 20.6979L19.4527 20.7896L20.3453 20.017L20.5993 19.8266L20.6486 19.9218L21.647 18.8282L21.6788 18.8L21.7705 18.9834L22.7336 17.5758L22.9946 17.2583L22.977 17.223L23.1287 17.0008C23.2486 16.8244 23.3686 16.6374 23.4779 16.4469L23.866 15.7872L23.8519 15.759C25.2806 12.9544 25.3935 9.94874 24.1306 7.41578L23.3227 5.79299C21.7634 2.65326 18.405 0.783524 14.341 0.783524Z" fill="white"/>
<path d="M22.8677 8.04015L22.0598 6.41737L21.8411 6.52673C19.2023 3.56338 14.0976 2.90017 9.51144 5.17912C4.92531 7.45807 2.37471 11.9278 3.14377 15.8189L2.92505 15.9283L3.73291 17.5511C5.82489 21.7562 11.801 23.0403 17.0821 20.4121C22.3632 17.7874 24.9596 12.2453 22.8677 8.04015Z" fill="#FFEAA2"/>
<path d="M23.4392 12.7109L21.6824 9.1761L22.1128 8.96091L23.5627 11.8749C23.5345 12.1571 23.4957 12.4358 23.4392 12.7109Z" fill="#FBC02D"/>
<path d="M22.8079 14.6724L20.3914 9.81466L20.8217 9.59947L23.0478 14.0798C22.9772 14.2808 22.8961 14.4784 22.8079 14.6724Z" fill="#FBC02D"/>
<path d="M21.961 16.2L19.1071 10.4567L19.5374 10.2415L22.2644 15.7237C22.1657 15.886 22.0669 16.0483 21.961 16.2Z" fill="#FBC02D"/>
<path d="M20.9803 17.4665L17.8159 11.0988L18.2463 10.8836L21.319 17.0678C21.2097 17.2019 21.1003 17.3359 20.9803 17.4665Z" fill="#FBC02D"/>
<path d="M19.9044 18.5319L16.5283 11.7409L16.9587 11.5257L20.2748 18.1967C20.1549 18.3096 20.0314 18.419 19.9044 18.5319Z" fill="#FBC02D"/>
<path d="M18.7472 19.4349L15.2406 12.3793L15.671 12.1641L19.1423 19.1492C19.0118 19.248 18.8813 19.3432 18.7472 19.4349Z" fill="#FBC02D"/>
<path d="M17.5127 20.1899L13.9496 13.0214L14.38 12.8062L17.9289 19.95C17.7949 20.0347 17.6573 20.1123 17.5127 20.1899Z" fill="#FBC02D"/>
<path d="M16.6552 20.6167C16.5106 20.6873 16.3624 20.7473 16.2142 20.8073L12.6653 13.6635L13.0957 13.4483L16.6552 20.6167Z" fill="#FBC02D"/>
<path d="M15.3076 21.1424C15.1524 21.1918 14.9972 21.2412 14.842 21.2871L11.3706 14.302L11.801 14.0868L15.3076 21.1424Z" fill="#FBC02D"/>
<path d="M13.8895 21.5199C13.7237 21.5551 13.5614 21.5869 13.3991 21.6116L10.083 14.9405L10.5134 14.7253L13.8895 21.5199Z" fill="#FBC02D"/>
<path d="M12.3902 21.735C12.2174 21.7492 12.041 21.7598 11.8681 21.7668L8.79541 15.5826L9.2258 15.3674L12.3902 21.735Z" fill="#FBC02D"/>
<path d="M10.7922 21.7527C10.6052 21.7421 10.4182 21.728 10.2348 21.7068L7.50781 16.2246L7.9382 16.0094L10.7922 21.7527Z" fill="#FBC02D"/>
<path d="M9.06337 21.5057C8.8517 21.4599 8.64709 21.4034 8.44601 21.3399L6.21997 16.8597L6.65036 16.6444L9.06337 21.5057Z" fill="#FBC02D"/>
<path d="M7.11607 20.8249C6.86207 20.7015 6.61512 20.5674 6.37876 20.4192L4.92883 17.5053L5.35922 17.2901L7.11607 20.8249Z" fill="#FBC02D"/>
<path d="M22.8677 8.04015L22.0598 6.41737L21.8411 6.52673C19.2023 3.56338 14.0976 2.90017 9.51144 5.17912C4.92531 7.45807 2.37471 11.9278 3.14377 15.8189L2.92505 15.9283L3.73291 17.5511C5.82489 21.7562 11.801 23.0403 17.0821 20.4121C22.3632 17.7874 24.9596 12.2453 22.8677 8.04015Z" fill="url(#paint0_linear_164_4276)"/>
<path d="M2.92858 15.9283C5.02056 20.1334 10.9966 21.414 16.2813 18.7894C21.5659 16.1647 24.1518 10.626 22.0598 6.41738C19.9678 2.21225 13.9917 0.931667 8.70711 3.55634C3.426 6.18455 0.840128 11.7232 2.92858 15.9283Z" fill="#FBC02D"/>
<path d="M3.7719 15.5085C5.60283 19.195 10.9968 20.2392 15.8123 17.8439C20.6312 15.4485 23.0513 10.5202 21.2204 6.83363C19.3894 3.14709 13.9954 2.10285 9.18001 4.49823C4.36104 6.8936 1.94098 11.8255 3.7719 15.5085Z" fill="#EDAC4B"/>
<path d="M3.7719 15.5085C5.60283 19.195 10.9968 20.2392 15.8123 17.8439C20.6312 15.4485 23.0513 10.5202 21.2204 6.83363C19.3894 3.14709 13.9954 2.10285 9.18001 4.49823C4.36104 6.8936 1.94098 11.8255 3.7719 15.5085Z" fill="url(#paint1_linear_164_4276)"/>
<path d="M9.38456 4.91456C14.1118 2.56505 19.3894 3.52813 21.3156 7.04887C21.2803 6.97831 21.2521 6.90775 21.2168 6.8372C19.3859 3.15065 13.9954 2.1029 9.17642 4.5018C4.35746 6.89717 1.93739 11.8255 3.77184 15.5121C3.80712 15.5826 3.8424 15.6496 3.8812 15.7202C2.24078 12.0513 4.65732 7.26407 9.38456 4.91456Z" fill="url(#paint2_radial_164_4276)"/>
<path d="M8.18151 13.6247C8.08626 13.4625 8.00159 13.2931 7.93104 13.1203C7.86048 12.9544 7.80403 12.7816 7.7617 12.6052C7.71937 12.4323 7.69467 12.2595 7.68056 12.0831C7.66998 11.9067 7.66998 11.7303 7.68762 11.5539C7.70526 11.374 7.73348 11.1976 7.77581 11.0247C7.81815 10.8484 7.87106 10.6755 7.93809 10.5062C8.00512 10.3298 8.08626 10.1604 8.17798 9.99464C8.27323 9.8253 8.37906 9.6595 8.49548 9.50075C8.61543 9.33494 8.74596 9.17619 8.88354 9.02802C9.02818 8.8728 9.17988 8.72815 9.34215 8.59057C9.51149 8.44593 9.68435 8.31188 9.86779 8.18488C10.0548 8.05435 10.2523 7.93088 10.4569 7.81446C10.6122 7.72627 10.7674 7.64513 10.9226 7.57104C11.0814 7.49696 11.2331 7.42993 11.3883 7.36996C11.5435 7.30998 11.6987 7.25706 11.8539 7.2112C12.0092 7.16534 12.1644 7.12301 12.3196 7.09479C12.4748 7.06304 12.6301 7.03835 12.7818 7.02071C12.9334 7.00307 13.0851 6.98896 13.2333 6.98543C13.3815 6.9819 13.5296 6.98189 13.6778 6.98895C13.8224 6.996 13.9671 7.01012 14.1117 7.03481C14.2528 7.05598 14.3975 7.08421 14.5315 7.11949C14.6691 7.15476 14.8032 7.19709 14.9337 7.24295C15.1948 7.3382 15.4452 7.46168 15.6781 7.60984C15.9144 7.75801 16.1332 7.93087 16.3272 8.1249C16.426 8.22368 16.5177 8.32952 16.6024 8.44241C16.6905 8.5553 16.7752 8.67524 16.8493 8.79519C16.9199 8.90808 16.9834 9.02096 17.0398 9.1409C17.0962 9.26085 17.1421 9.38433 17.1844 9.5078C17.2232 9.6348 17.2585 9.76533 17.2832 9.89586C17.3079 10.0299 17.3256 10.1675 17.3361 10.3051C17.3538 10.5803 17.3397 10.8589 17.2867 11.1306C17.2585 11.2682 17.2232 11.4058 17.1809 11.5363C17.135 11.6739 17.0857 11.8079 17.0222 11.9385L14.8984 11.7691C14.9337 11.6915 14.969 11.6104 14.9972 11.5292C15.0254 11.4516 15.0501 11.3705 15.0678 11.2893C15.0889 11.2117 15.103 11.1306 15.1136 11.053C15.1242 10.9754 15.1277 10.8977 15.1277 10.8201C15.1313 10.6614 15.1136 10.5062 15.0678 10.3545C15.0466 10.2769 15.0184 10.1992 14.9831 10.1287C14.909 9.96642 14.8138 9.81472 14.7009 9.67714C14.5809 9.53955 14.4398 9.4196 14.2846 9.32083C14.2035 9.27144 14.1223 9.2291 14.0341 9.1903C13.9459 9.15149 13.8542 9.11974 13.7625 9.09504C13.6672 9.07035 13.5684 9.04919 13.4732 9.03508C13.3709 9.02096 13.2686 9.01391 13.1628 9.01391C13.0534 9.01391 12.944 9.01744 12.8347 9.02802C12.7218 9.03861 12.6089 9.05624 12.496 9.08094C12.3796 9.10563 12.2632 9.14091 12.1503 9.17972C12.0303 9.22205 11.9139 9.26791 11.7975 9.32083C11.6811 9.37727 11.5611 9.43725 11.4377 9.50075C11.2719 9.596 11.1131 9.6983 10.9579 9.81471C10.8203 9.92055 10.6898 10.037 10.5698 10.164C10.4569 10.2839 10.3582 10.4109 10.2735 10.5485C10.1888 10.679 10.1218 10.8201 10.0689 10.9683C10.016 11.1094 9.98068 11.2541 9.96304 11.4022C9.94541 11.5469 9.94188 11.6915 9.95952 11.8326C9.97716 11.9773 10.0089 12.1219 10.0583 12.2595C10.1112 12.4076 10.1782 12.5488 10.2594 12.6828C10.3017 12.7534 10.3511 12.8204 10.4005 12.8839C10.4499 12.9474 10.5063 13.0074 10.5663 13.0638C10.6263 13.1203 10.6898 13.1732 10.7533 13.2226C10.8203 13.272 10.8944 13.3178 10.9685 13.3566C11.0426 13.399 11.1202 13.4342 11.1978 13.4695C11.353 13.5365 11.5153 13.5859 11.6811 13.6212C11.7657 13.6388 11.8469 13.6494 11.9316 13.6565L10.785 15.3992C10.7039 15.3922 10.6263 15.3816 10.5451 15.3639C10.464 15.3498 10.3829 15.3287 10.3017 15.3075C10.2206 15.2828 10.143 15.2546 10.0583 15.2228C9.9701 15.1911 9.89249 15.1558 9.81135 15.1135C9.73021 15.0747 9.64907 15.0288 9.56793 14.9829C9.48679 14.9371 9.40918 14.8877 9.33157 14.8383C9.25396 14.7889 9.17987 14.7325 9.10226 14.6725C9.02818 14.6125 8.9541 14.5525 8.88001 14.489C8.80593 14.4255 8.7389 14.3585 8.6754 14.2915C8.6119 14.2245 8.54487 14.1539 8.4849 14.0798C8.42493 14.0093 8.36848 13.9316 8.31557 13.8576C8.27676 13.787 8.22737 13.7059 8.18151 13.6247Z" fill="#FFEAA2"/>
<defs>
<linearGradient id="paint0_linear_164_4276" x1="18.5494" y1="10.0882" x2="-4.56703" y2="21.578" gradientUnits="userSpaceOnUse">
<stop offset="0.017" stop-color="white" stop-opacity="0"/>
<stop offset="1" stop-color="#F9A825"/>
</linearGradient>
<linearGradient id="paint1_linear_164_4276" x1="18.22" y1="8.23218" x2="-7.62235" y2="21.0769" gradientUnits="userSpaceOnUse">
<stop offset="0.017" stop-color="white" stop-opacity="0"/>
<stop offset="1" stop-color="#F9A825"/>
</linearGradient>
<radialGradient id="paint2_radial_164_4276" cx="0" cy="0" r="1" gradientUnits="userSpaceOnUse" gradientTransform="translate(857.121 1648.09) rotate(63.5684) scale(7.40538 9.78802)">
<stop offset="0.017" stop-color="white" stop-opacity="0"/>
<stop offset="1" stop-color="#F9A825"/>
</radialGradient>
</defs>
</svg>
