<svg width="19" height="29" viewBox="0 0 19 29" fill="none" xmlns="http://www.w3.org/2000/svg">
<path d="M16.5442 25.5719C16.5089 25.6178 16.463 25.653 16.4136 25.6813C16.3643 25.7095 16.3078 25.7236 16.2514 25.7306L5.02592 26.849C4.96948 26.856 4.90951 26.849 4.8566 26.8313C4.80015 26.8137 4.75076 26.789 4.7049 26.7502C4.65904 26.7114 4.62376 26.669 4.59554 26.6197C4.56732 26.5703 4.5532 26.5138 4.54615 26.4574L2.26014 3.47028C2.24956 3.35386 2.28483 3.24097 2.35892 3.14924C2.433 3.06105 2.53884 3.00461 2.65173 2.99049L13.8772 1.87571C13.9336 1.86865 13.99 1.87571 14.0465 1.89335C14.1029 1.91099 14.1523 1.93569 14.1982 1.97449C14.244 2.00977 14.2793 2.05563 14.3076 2.10502C14.3358 2.15441 14.3499 2.21085 14.3569 2.2673L16.643 25.2544C16.65 25.3108 16.6429 25.3708 16.6253 25.4237C16.6077 25.4766 16.583 25.526 16.5442 25.5719ZM7.19199 23.0001C7.82347 23.4235 8.35263 23.9985 8.71952 24.6829C8.35263 23.9985 7.827 23.4235 7.19199 23.0001ZM4.43679 7.24149C4.98007 6.95221 5.45985 6.5571 5.8479 6.08084C5.85496 6.07026 5.86555 6.05968 5.8726 6.0491C6.26771 5.55873 6.55699 4.99428 6.72985 4.39103L10.1483 4.04883L6.72985 4.39103C6.55699 4.99781 6.26771 5.56226 5.8726 6.0491C5.86202 6.05968 5.85496 6.07026 5.84437 6.08084C5.45632 6.5571 4.98007 6.95221 4.43679 7.24149L5.94668 22.411L4.43679 7.24149ZM11.503 5.65398C11.9404 5.9856 12.4343 6.23606 12.9635 6.39481C12.4343 6.23253 11.9404 5.98207 11.503 5.65398ZM17.853 26.6444C18.0294 26.4256 18.1634 26.1822 18.2446 25.9106C18.3257 25.6425 18.3539 25.3602 18.3257 25.078L16.0397 2.09796C16.0115 1.81927 15.9303 1.55468 15.7998 1.30421C15.6657 1.05374 15.4894 0.838544 15.2706 0.662154C15.0519 0.485764 14.8085 0.351708 14.5369 0.270569C14.2652 0.18943 13.9865 0.161203 13.7078 0.189426L2.48239 1.30421C1.91088 1.36418 1.40641 1.63582 1.04658 2.07327C0.686743 2.51072 0.520938 3.06106 0.573855 3.6255L2.86339 26.6197C2.89161 26.8984 2.97275 27.1665 3.10328 27.4134C3.23734 27.6639 3.41373 27.8791 3.63245 28.0555C3.85117 28.2319 4.09459 28.3659 4.36623 28.4471C4.63787 28.5282 4.91656 28.5564 5.19526 28.5282L16.4207 27.4099C16.6994 27.3817 16.9675 27.3005 17.218 27.1665C17.4614 27.0395 17.6766 26.8595 17.853 26.6444Z" fill="white"/>
<path d="M4.85306 26.8313C4.90951 26.8489 4.96596 26.8524 5.0224 26.8489L16.2478 25.7306C16.3043 25.7235 16.3607 25.7094 16.4101 25.6812C16.4595 25.653 16.5054 25.6177 16.5406 25.5719C16.5759 25.526 16.6041 25.4766 16.6218 25.4202C16.6394 25.3637 16.6429 25.3073 16.6394 25.2508L14.3534 2.26373C14.3464 2.20728 14.3322 2.15084 14.304 2.10145C14.2758 2.05206 14.2405 2.0062 14.1947 1.97092C14.1488 1.93564 14.0994 1.90742 14.043 1.88978C13.9865 1.87214 13.9301 1.86861 13.8736 1.87214L2.64819 2.98692C2.53177 2.99751 2.42594 3.05748 2.35538 3.14567C2.28483 3.23387 2.24602 3.35029 2.25661 3.4667L4.54261 26.4538C4.54967 26.5103 4.56379 26.5667 4.59201 26.6161C4.62023 26.6655 4.65551 26.7113 4.70137 26.7466C4.74723 26.7819 4.80014 26.8136 4.85306 26.8313Z" fill="#329ACE"/>
<path d="M5.60449 7.22377L11.697 6.60994L12.1062 10.6845L10.9914 10.7974L10.7057 7.9505L9.37217 8.08455L9.61559 10.5046L8.53609 10.614L8.29267 8.19392L6.83922 8.33856L7.13202 11.2384L6.01725 11.3513L5.60449 7.22377Z" fill="white"/>
<path d="M6.05261 11.6547L9.38991 13.5244L12.1522 11.0832L12.3074 12.6319L10.3847 14.2511L12.5826 15.3941L12.7307 16.8582L9.44636 15.059L6.64529 17.5567L6.49007 16.008L8.44094 14.3428L6.19725 13.1187L6.05261 11.6547Z" fill="white"/>
<path d="M6.69824 18.0859L12.7907 17.4721L13.0483 20.0403C13.0835 20.4002 13.0306 20.7318 12.8895 21.0352C12.7484 21.3386 12.5367 21.5926 12.2616 21.7937C11.9864 21.9947 11.6654 22.1147 11.2985 22.15C10.921 22.1888 10.5753 22.1358 10.2578 21.9947C9.94028 21.8536 9.67923 21.649 9.47461 21.3774C9.27 21.1093 9.14653 20.7918 9.11125 20.4319L8.98072 19.116L6.82172 19.3348L6.69824 18.0859ZM10.1237 18.9996L10.2437 20.192C10.2648 20.4072 10.3636 20.5801 10.5365 20.7106C10.7093 20.8411 10.9175 20.8976 11.1538 20.8729C11.3902 20.8482 11.5807 20.7565 11.7183 20.5907C11.8559 20.4284 11.9158 20.2379 11.8947 20.0227L11.7747 18.8303L10.1237 18.9996Z" fill="white"/>
</svg>
