<svg id="Image_order_sent" data-name="Image / order sent" xmlns="http://www.w3.org/2000/svg" xmlns:xlink="http://www.w3.org/1999/xlink" width="72" height="72" viewBox="0 0 72 72">
  <defs>
    <linearGradient id="linear-gradient" y1="0.5" x2="1" y2="0.5" gradientUnits="objectBoundingBox">
      <stop offset="0" stop-color="#fff"/>
      <stop offset="1" stop-color="#fff" stop-opacity="0.502"/>
    </linearGradient>
  </defs>
  <rect id="Rectangle_1160" data-name="Rectangle 1160" width="72" height="72" fill="none"/>
  <g id="Group_1756" data-name="Group 1756" transform="translate(-6043.09 -9281.217)">
    <path id="Path_453" data-name="Path 453" d="M6079.876,9308.177H6058.8a1.5,1.5,0,0,1-1.5-1.5v-13.1a1.5,1.5,0,0,1,3,0v11.6h19.572a1.5,1.5,0,0,1,0,3Z" fill="#1915bf"/>
    <path id="Path_454" data-name="Path 454" d="M6079.876,9318.514H6058.8a1.5,1.5,0,0,1,0-3h21.072a1.5,1.5,0,0,1,0,3Z" fill="#1915bf"/>
    <path id="Path_455" data-name="Path 455" d="M6077.832,9328.847H6058.8a1.474,1.474,0,0,1-1.38-.939,1.435,1.435,0,0,1-.12-.58,1.31,1.31,0,0,1,.12-.561,1.5,1.5,0,0,1,1.38-.92h16l2.98,2.98h.03Z" fill="#1915bf"/>
    <path id="Path_456" data-name="Path 456" d="M6079.876,9308.177a1.5,1.5,0,0,1-1.5-1.5v-11.6H6058.8a1.5,1.5,0,0,1,0-3h21.072a1.5,1.5,0,0,1,1.5,1.5v13.1A1.5,1.5,0,0,1,6079.876,9308.177Z" fill="#1915bf"/>
    <g id="Group_1755" data-name="Group 1755">
      <path id="Path_457" data-name="Path 457" d="M6083.1,9339.707h-32.51a4.507,4.507,0,0,1-4.5-4.5v-52.49a1.5,1.5,0,0,1,3,0v52.46a1.445,1.445,0,0,0,.03.3,1.79,1.79,0,0,0,.07.25,1.118,1.118,0,0,0,.22.381c.05.06.1.119.15.17a1.427,1.427,0,0,0,1.03.43h32.42Z" fill="#1915bf"/>
    </g>
    <path id="Path_458" data-name="Path 458" d="M6092.582,9285.717v32.98l-3,.649v-33.66a1.236,1.236,0,0,0-.03-.27,1.733,1.733,0,0,0-.07-.25,1.51,1.51,0,0,0-1.4-.95h-40.49a1.5,1.5,0,0,1,0-3h40.49A4.507,4.507,0,0,1,6092.582,9285.717Z" fill="#1915bf"/>
    <path id="Path_459" data-name="Path 459" d="M6073.692,9323.627v-.02a1.2,1.2,0,0,1,.07-.171,1.482,1.482,0,0,1,.1-.18v-.01a1.508,1.508,0,0,1,.95-.68l14.77-3.25v-33.631a1.236,1.236,0,0,0-.03-.27,1.733,1.733,0,0,0-.07-.25,1.478,1.478,0,0,0-1.4-.98h-38.99v50.99a1.445,1.445,0,0,0,.03.3,1.79,1.79,0,0,0,.07.25,1.567,1.567,0,0,0,.22.381c.05.06.1.119.15.17a1.523,1.523,0,0,0,1.03.4h32.42l-.08-2.7v-.029l-5.12-5.12H6058.8a1.5,1.5,0,0,1-1.38-.92,1.435,1.435,0,0,1-.12-.58,1.31,1.31,0,0,1,.12-.561,1.474,1.474,0,0,1,1.38-.939h16.01l-.74-.74a1.422,1.422,0,0,1-.33-.479,1.538,1.538,0,0,1-.05-.971Zm7.68-16.979a1.392,1.392,0,0,1-.1.529v.021a1.277,1.277,0,0,1-.1.2,1.493,1.493,0,0,1-1.3.75H6058.8a1.494,1.494,0,0,1-1.3-.75,1.321,1.321,0,0,1-.1-.2v-.021a1.392,1.392,0,0,1-.1-.529v-13.1a1.236,1.236,0,0,1,.03-.27.918.918,0,0,1,.09-.28,1.449,1.449,0,0,1,1.38-.95h21.07a1.449,1.449,0,0,1,1.38.95.918.918,0,0,1,.09.28,1.236,1.236,0,0,1,.03.27Zm-23.97,10.89v-.021a1.392,1.392,0,0,1-.1-.529,1.245,1.245,0,0,1,.03-.271.936.936,0,0,1,.09-.28,1.449,1.449,0,0,1,1.38-.949h21.07a1.449,1.449,0,0,1,1.38.949.936.936,0,0,1,.09.28,1.245,1.245,0,0,1,.03.271,1.392,1.392,0,0,1-.1.529v.021a1.236,1.236,0,0,1-.1.2,1.493,1.493,0,0,1-1.3.75H6058.8a1.494,1.494,0,0,1-1.3-.75A1.277,1.277,0,0,1,6057.4,9317.537Z" fill="#f0f8ff"/>
    <path id="Path_460" data-name="Path 460" d="M6099.912,9326.937l-7.02,12.75h-.01Z" fill="#29c885"/>
    <path id="Path_461" data-name="Path 461" d="M6092.882,9339.687h.01l7.02-12.75Zm-15.07-10.859h-.03l5.15,5.149v-.029Zm-3.74-3.74a1.422,1.422,0,0,1-.33-.479,1.4,1.4,0,0,0,.33.51l.71.71h.03Z" fill="url(#linear-gradient)"/>
    <path id="Path_462" data-name="Path 462" d="M6111.642,9315.207a1.5,1.5,0,0,0-1.38-.4l-17.68,3.891-3,.649-14.77,3.25a1.519,1.519,0,0,0-.95.65v.01a1.341,1.341,0,0,0-.17.37v.01a1.538,1.538,0,0,0,.05.971,1.422,1.422,0,0,0,.33.479l.74.74h-.03l3,3h.03l5.12,5.12v.029l.08,2.7v.03l.09,3,.08,2.51a1.493,1.493,0,0,0,1.45,1.46l8.24.24,8.86,8.86a1.49,1.49,0,0,0,1.06.439,1.541,1.541,0,0,0,.43-.06,1.5,1.5,0,0,0,1.04-1.12l7.79-35.45A1.474,1.474,0,0,0,6111.642,9315.207Zm-18.76,24.479-.66,1.211-2.44-.07-3.65-.11-.18-6.08,1.21-.67,12.75-7.03-7.02,12.75Zm9.04,9.03-6.83-6.819,9.96-18.051a1.5,1.5,0,0,0-2.04-2.04l-18.05,9.95-3.75-3.75h-.01l-2.16-2.16-.91-.91,30.48-6.7Z" fill="#1915bf"/>
    <path id="Path_463" data-name="Path 463" d="M6108.612,9318.237l-6.69,30.479-6.83-6.819,9.96-18.051a1.5,1.5,0,0,0-2.04-2.04l-18.05,9.95-3.75-3.75h-.01l-2.16-2.16-.91-.91Z" fill="#1681da"/>
    <path id="Path_464" data-name="Path 464" d="M6099.912,9326.937l-7.03,12.75-.66,1.21-2.44-.069-3.65-.11-.18-6.08,1.21-.67Z" fill="#1681da"/>
    <path id="Path_465" data-name="Path 465" d="M6099.912,9326.937l-7.02,12.75h-.01Z" fill="#0aa262"/>
  </g>
</svg>
