<svg width="211" height="205" viewBox="0 0 211 205" fill="none" xmlns="http://www.w3.org/2000/svg">
<g clip-path="url(#clip0_606_86759)">
<path d="M25.92 168.1C28.45 168.1 30.57 168.44 32.27 169.13C33.97 169.82 35.42 170.76 36.62 171.95C37.85 173.18 38.81 174.62 39.52 176.27C40.22 177.92 40.57 179.64 40.57 181.43C40.57 183.01 40.3 184.53 39.75 185.99C39.2 187.45 38.44 188.77 37.46 189.97C36.23 191.45 34.68 192.61 32.82 193.47C30.96 194.33 28.66 194.76 25.92 194.76H9.54V203.72H0V170.32C0 168.84 0.77 168.11 2.32 168.11H25.92V168.1ZM26.13 186.01C27.18 186.01 28.03 185.86 28.68 185.56C29.33 185.26 29.85 184.85 30.23 184.32C30.79 183.58 31.07 182.74 31.07 181.79C31.07 180.77 30.77 179.88 30.17 179.1C29.78 178.61 29.27 178.22 28.62 177.94C27.97 177.66 27.14 177.52 26.12 177.52H10.22C9.76 177.52 9.53 177.77 9.53 178.26V186.01H26.13V186.01Z" fill="url(#paint0_linear_606_86759)"/>
<path d="M83.3496 202.13C83.4896 202.41 83.5996 202.68 83.6896 202.92C83.7796 203.17 83.8596 203.43 83.9296 203.71H73.1796C73.1096 203.46 73.0396 203.24 72.9696 203.05C72.8996 202.86 72.8296 202.67 72.7596 202.5L70.8596 198.18H49.7896L47.9496 202.45C47.8796 202.66 47.8096 202.87 47.7396 203.08C47.6696 203.29 47.6196 203.5 47.5796 203.71H36.5596C36.6296 203.43 36.7096 203.17 36.7996 202.92C36.8896 202.67 36.9996 202.41 37.1396 202.13L49.8896 173.89C50.9096 171.68 52.2396 170.03 53.8896 168.94C55.5396 167.85 57.6496 167.31 60.2096 167.31C62.6996 167.31 64.7796 167.85 66.4496 168.94C68.1196 170.03 69.4596 171.68 70.4796 173.89L83.3496 202.13ZM67.3896 190.33L61.9096 177.58C61.7296 177.19 61.5096 176.91 61.2196 176.74C60.9396 176.56 60.6196 176.48 60.2696 176.48C59.9496 176.48 59.6496 176.56 59.3696 176.72C59.0896 176.88 58.8596 177.17 58.6796 177.59L53.2496 190.34H67.3896V190.33Z" fill="url(#paint1_linear_606_86759)"/>
<path d="M76.3398 169.68C76.1998 169.4 76.0898 169.14 75.9998 168.89C75.9098 168.64 75.8298 168.38 75.7598 168.1H87.0398C87.1498 168.56 87.2698 168.98 87.4098 169.36L98.0498 193.97C98.2298 194.36 98.4398 194.64 98.7098 194.81C98.9698 194.99 99.2598 195.07 99.5798 195.07C99.8998 195.07 100.18 194.99 100.42 194.83C100.67 194.67 100.88 194.38 101.05 193.96L111.59 169.35C111.77 168.96 111.91 168.54 112.01 168.09H123.13C123.06 168.37 122.98 168.63 122.89 168.88C122.8 169.13 122.69 169.39 122.55 169.67L109.8 197.91C108.78 200.12 107.45 201.77 105.8 202.84C104.15 203.91 102.06 204.45 99.5298 204.45C94.6098 204.45 91.1698 202.27 89.1998 197.92L76.3398 169.68Z" fill="url(#paint2_linear_606_86759)"/>
<path d="M140.52 203.72C137.32 203.72 134.55 203.2 132.2 202.17C129.85 201.13 127.84 199.72 126.19 197.93C124.75 196.35 123.63 194.54 122.82 192.5C122.01 190.46 121.61 188.27 121.61 185.91C121.61 183.31 122.12 180.89 123.14 178.64C124.16 176.39 125.56 174.44 127.36 172.79C128.94 171.31 130.81 170.16 132.97 169.34C135.13 168.52 137.65 168.1 140.53 168.1H148C150.88 168.1 153.4 168.51 155.56 169.34C157.72 170.17 159.59 171.32 161.17 172.79C162.96 174.44 164.37 176.39 165.39 178.64C166.41 180.89 166.92 183.31 166.92 185.91C166.92 188.26 166.52 190.46 165.71 192.5C164.9 194.54 163.78 196.35 162.34 197.93C160.69 199.72 158.69 201.14 156.33 202.17C153.98 203.21 151.2 203.72 148 203.72H140.52ZM140.52 177.53C138.9 177.53 137.57 177.74 136.52 178.16C135.47 178.58 134.55 179.14 133.78 179.85C132.97 180.62 132.33 181.54 131.86 182.59C131.39 183.64 131.15 184.77 131.15 185.96C131.15 187.05 131.34 188.08 131.73 189.04C132.12 190.01 132.66 190.86 133.36 191.6C134.13 192.44 135.1 193.11 136.26 193.6C137.42 194.09 138.84 194.34 140.53 194.34H148C149.69 194.34 151.11 194.09 152.27 193.6C153.43 193.11 154.39 192.44 155.17 191.6C155.87 190.86 156.42 190.01 156.8 189.04C157.19 188.07 157.38 187.05 157.38 185.96C157.38 184.77 157.14 183.64 156.67 182.59C156.2 181.54 155.55 180.62 154.75 179.85C153.98 179.15 153.06 178.59 152.01 178.16C150.96 177.74 149.62 177.53 148.01 177.53H140.52Z" fill="url(#paint3_linear_606_86759)"/>
<path d="M184.78 197.1V177.59C184.78 175.94 184.63 174.52 184.33 173.32C184.03 172.13 183.54 171.14 182.85 170.37C182.16 169.6 181.26 169.03 180.14 168.66C179.02 168.29 177.63 168.11 175.98 168.11H171.08V177.54H173.93C174.84 177.54 175.3 178.03 175.3 179.02V197.11H171.69V203.73H175.3H177.35H184.79H188.4V197.11H184.78V197.1Z" fill="url(#paint4_linear_606_86759)"/>
<path d="M206.41 197.1V177.59C206.41 175.94 206.26 174.52 205.96 173.32C205.66 172.13 205.17 171.14 204.48 170.37C203.79 169.6 202.89 169.03 201.77 168.66C200.65 168.29 199.26 168.11 197.61 168.11H192.71V177.54H195.56C196.47 177.54 196.93 178.03 196.93 179.02V197.11H193.32V203.73H196.93H198.98H206.42H210.03V197.11H206.41V197.1Z" fill="url(#paint5_linear_606_86759)"/>
<path d="M81.4499 121.68C56.6699 132.48 35.7099 133.99 28.2899 123.71C22.3099 115.42 26.3699 101.22 37.6199 85.49C37.8199 85.21 38.0199 84.93 38.2199 84.65L37.2399 87.25C36.9799 87.65 36.7399 88.05 36.4999 88.45C29.9399 99.27 27.9999 108.6 32.1099 114.3C37.6799 122.03 53.1099 121.29 72.1899 113.84C74.7199 117.03 77.8599 119.7 81.4499 121.68Z" fill="url(#paint6_linear_606_86759)"/>
<path d="M76.9002 112.27C76.8102 112.19 76.7302 112.1 76.6602 112.01C76.6702 112.01 76.6702 112 76.6702 112C76.7502 112.09 76.8302 112.18 76.9002 112.27Z" fill="url(#paint7_linear_606_86759)"/>
<path d="M86.9603 119.16C86.9003 119.14 86.8403 119.12 86.7803 119.1C86.8403 119.12 86.9003 119.14 86.9603 119.16Z" fill="url(#paint8_linear_606_86759)"/>
<path d="M120.6 85.02C120.59 85 120.58 84.97 120.57 84.96L120.58 84.95C120.59 84.98 120.6 85 120.6 85.02Z" fill="url(#paint9_linear_606_86759)"/>
<path d="M145.43 60.72C145.42 60.79 145.41 60.86 145.39 60.92C145.4 60.85 145.41 60.78 145.43 60.72Z" fill="url(#paint10_linear_606_86759)"/>
<path d="M137.299 84.72C142.619 77.82 146.179 69.76 147.729 60.98C147.959 59.68 148.139 58.39 148.279 57.09C158.839 43.08 162.949 30.58 157.889 23.58C154.419 18.77 147.139 17.24 137.529 18.57C137.349 18.33 137.169 18.08 136.979 17.85C151.309 14.83 162.46 16.4 167.46 23.34C176.3 35.58 163.17 60.81 137.299 84.72Z" fill="url(#paint11_linear_606_86759)"/>
<path d="M46.1497 75.8C45.8897 76.39 45.6697 76.99 45.4697 77.6C45.6697 76.99 45.8897 76.38 46.1497 75.8Z" fill="url(#paint12_linear_606_86759)"/>
<path d="M56.9002 113.96C51.2902 114.55 37.8002 118.44 34.5302 106.73C32.6202 99.89 37.6702 89.42 42.2002 81.89C42.1502 82.35 42.1102 82.82 42.0902 83.3C41.9002 87.43 42.7702 91.5 44.5702 95.13C42.9102 100.39 42.0702 105.86 44.0602 108.65C48.1002 114.35 56.1702 114 56.9002 113.96Z" fill="url(#paint13_linear_606_86759)"/>
<path d="M151.509 46.93C151.509 46.93 154.019 33.08 149.779 29.81C148.009 28.44 145.559 28.06 143.319 28.1C142.019 25.37 140.479 22.72 138.709 20.19C138.699 20.18 138.699 20.17 138.689 20.17C143.079 20.21 150.509 20.96 153.919 25.29C158.929 31.64 153.729 43.18 151.509 46.93Z" fill="url(#paint14_linear_606_86759)"/>
<path d="M81.1595 4.78C81.2595 3.47 80.6395 2.22 79.3595 1.94C78.0795 1.65 76.7994 2.46 76.5194 3.74C76.5194 3.74 74.7995 6.63 73.4395 20.91C73.4395 20.91 75.7695 14.5 76.6495 12.86C77.8095 10.64 81.1095 5.46 81.1595 4.78Z" fill="url(#paint15_linear_606_86759)"/>
<path d="M87.1798 11.3C87.7698 10.28 87.7498 9.05 86.8298 8.32C85.9098 7.59 84.5798 7.75 83.8498 8.67C83.8498 8.67 81.3598 10.33 74.7598 21.27C74.7598 21.27 79.0998 17.02 80.4298 16.04C82.2398 14.72 86.8798 11.82 87.1798 11.3Z" fill="url(#paint16_linear_606_86759)"/>
<path d="M66.9196 80.01C65.3196 82.52 62.7396 87.81 62.9596 92.1C63.0796 94.44 63.4897 96.72 64.1597 98.88C64.1597 98.88 64.1596 98.89 64.1696 98.91C64.2696 99.44 66.0297 108.08 70.1597 110.67C70.1897 110.69 70.2297 110.72 70.2597 110.73C66.6197 109.63 61.3997 107.51 55.4897 103.48C53.9197 102.58 52.4596 101.5 51.1696 100.26C51.1596 100.26 51.1597 100.25 51.1497 100.25C50.8897 100 50.6396 99.75 50.3896 99.49C50.3696 99.47 50.3396 99.44 50.3196 99.41C50.0996 99.17 49.8696 98.92 49.6596 98.68C49.6496 98.67 49.6397 98.65 49.6297 98.64C49.5197 98.52 49.4196 98.39 49.3196 98.26C49.1996 98.12 49.0896 97.98 48.9796 97.84C48.8496 97.67 48.7196 97.51 48.5996 97.34C48.5096 97.21 48.4097 97.08 48.3297 96.96C48.1997 96.77 48.0696 96.59 47.9496 96.4C47.8296 96.23 47.7296 96.06 47.6196 95.88C47.3996 95.52 47.1897 95.16 46.9897 94.79C46.8997 94.63 46.8196 94.47 46.7296 94.3C46.7096 94.25 46.6796 94.2 46.6596 94.15C46.5496 93.93 46.4496 93.71 46.3496 93.48C46.2196 93.2 46.1097 92.92 45.9897 92.65C45.9197 92.48 45.8496 92.31 45.7896 92.14C45.7596 92.07 45.7296 91.99 45.6996 91.92C45.6896 91.89 45.6796 91.86 45.6696 91.82C45.6596 91.81 45.6596 91.79 45.6596 91.78C45.5696 91.56 45.4996 91.33 45.4296 91.1C45.4096 91.04 45.3896 90.97 45.3696 90.9C45.2996 90.69 45.2396 90.48 45.1796 90.26C45.1796 90.25 45.1696 90.25 45.1696 90.24C45.1496 90.17 45.1296 90.1 45.1096 90.03C45.0696 89.9 45.0296 89.75 44.9996 89.61C44.9996 89.6 44.9897 89.59 44.9897 89.58C44.9797 89.56 44.9796 89.55 44.9796 89.53C44.9596 89.44 44.9296 89.34 44.9196 89.25C44.8496 88.96 44.7897 88.67 44.7397 88.38C44.7197 88.26 44.6896 88.14 44.6796 88.02C44.5996 87.56 44.5397 87.09 44.4897 86.61C44.4697 86.48 44.4596 86.35 44.4596 86.23C44.4496 86.2 44.4496 86.17 44.4496 86.15C44.4296 85.98 44.4196 85.81 44.4196 85.65C44.4096 85.57 44.4096 85.49 44.4096 85.41C44.3896 85.09 44.3896 84.76 44.3896 84.44C44.3896 84.1 44.3996 83.75 44.4096 83.4C44.4196 83.14 44.4396 82.89 44.4596 82.64C44.4696 82.49 44.4796 82.35 44.4996 82.2C44.5196 81.96 44.5496 81.71 44.5896 81.47C44.5996 81.4 44.6096 81.31 44.6196 81.24C44.6496 81.02 44.6797 80.8 44.7197 80.58C44.7297 80.48 44.7496 80.38 44.7696 80.29C44.7796 80.27 44.7796 80.25 44.7796 80.23C44.8296 79.97 44.8796 79.73 44.9396 79.47C44.9996 79.21 45.0597 78.96 45.1297 78.71C45.1597 78.6 45.1897 78.49 45.2197 78.38C45.2497 78.25 45.2896 78.11 45.3396 77.99C45.3696 77.86 45.4196 77.73 45.4596 77.6C45.6596 76.99 45.8896 76.39 46.1396 75.8C46.1396 75.79 46.1497 75.79 46.1497 75.79V75.78C46.2697 75.5 46.3896 75.22 46.5296 74.95C46.5596 74.9 46.5796 74.84 46.6096 74.79C46.7396 74.52 46.8796 74.26 47.0196 74C47.1596 73.73 47.3097 73.47 47.4697 73.21C47.5597 73.06 47.6497 72.92 47.7397 72.76C47.8597 72.57 47.9696 72.4 48.0896 72.21C48.2196 72.01 48.3596 71.82 48.4996 71.63C48.5196 71.6 48.5497 71.56 48.5797 71.52C48.7197 71.32 48.8796 71.11 49.0396 70.91L74.7197 46.18C75.2397 45.46 75.5596 44.58 75.6096 43.62C75.7396 41 73.6897 38.95 71.0797 38.65C70.8597 38.63 70.6197 38.62 70.3697 38.62C70.2897 38.62 70.2097 38.62 70.1197 38.63C70.0297 38.63 69.9496 38.64 69.8596 38.64C69.5596 38.66 69.2397 38.69 68.9097 38.73C68.7797 38.75 68.6497 38.76 68.5097 38.79C68.2697 38.83 68.0196 38.87 67.7696 38.92C67.5996 38.95 67.4297 38.99 67.2597 39.03C67.0497 39.08 66.8396 39.13 66.6296 39.18C66.4196 39.23 66.1997 39.29 65.9797 39.35C65.7697 39.41 65.5496 39.47 65.3196 39.54C65.0996 39.6 64.8797 39.67 64.6597 39.74C64.4397 39.81 64.2197 39.88 63.9897 39.95C63.7697 40.02 63.5396 40.09 63.3196 40.17C62.7096 40.38 62.0996 40.59 61.5096 40.81C61.3396 40.87 61.1696 40.94 61.0096 41C60.7396 41.1 60.4796 41.2 60.2096 41.31C59.9496 41.41 59.6996 41.51 59.4396 41.62C59.2396 41.69 59.0496 41.78 58.8496 41.86C58.6496 41.94 58.4596 42.02 58.2796 42.1C58.0896 42.18 57.9096 42.26 57.7296 42.33C57.7196 42.33 57.7197 42.33 57.7197 42.33C57.4497 42.45 57.1996 42.55 56.9596 42.66C56.8696 42.69 56.7897 42.73 56.7197 42.76C56.5697 42.83 56.4096 42.89 56.2696 42.96C56.1296 43.02 55.9896 43.09 55.8496 43.15C55.7196 43.21 55.5896 43.27 55.4796 43.32C55.3596 43.37 55.2596 43.42 55.1596 43.47C55.0896 43.5 55.0196 43.53 54.9596 43.56C54.8996 43.59 54.8396 43.61 54.7796 43.64C54.5696 43.74 54.4097 43.81 54.3297 43.85C54.2897 43.87 54.2696 43.88 54.2696 43.88C56.1296 35.92 59.9996 33.33 59.9996 33.33C62.4896 28 67.9096 24.35 74.0996 24.35C74.3396 24.35 74.5897 24.36 74.8297 24.37C83.4097 24.76 90.0396 32.05 89.6396 40.62C89.6396 40.62 90.1996 45.64 86.5696 51.63C82.9596 57.61 68.5196 77.5 66.9196 80.01Z" fill="url(#paint17_linear_606_86759)"/>
<path d="M46.1497 75.8C45.8897 76.39 45.6697 76.99 45.4697 77.6C45.6697 76.99 45.8897 76.38 46.1497 75.8Z" fill="url(#paint18_linear_606_86759)"/>
<path d="M45.4697 77.6C45.6697 76.99 45.8997 76.39 46.1497 75.8C45.8897 76.38 45.6697 76.99 45.4697 77.6Z" fill="url(#paint19_linear_606_86759)"/>
<path d="M128.47 78.26C128.06 84.26 126.53 90.87 126.53 90.87C126.53 86.97 126.21 85.47 124.52 81.7C124.31 81.23 124.08 80.73 123.83 80.18C121.53 75.24 114.32 71.55 105.51 64.09C96.7001 56.64 95.8701 41.07 95.8701 41.07C96.5201 41.02 97.1501 41 97.7901 40.98C104.72 40.79 111.28 44.19 115.28 49.86C122.18 59.61 127.9 68.7 128.41 72.82C128.61 74.4 128.6 76.29 128.47 78.26Z" fill="url(#paint20_linear_606_86759)"/>
<path d="M122.45 93.77C122.44 93.46 122.42 93.15 122.4 92.84C122.39 92.82 122.39 92.79 122.39 92.77C122.37 92.46 122.34 92.14 122.3 91.84C122.28 91.68 122.27 91.52 122.24 91.35C122.22 91.19 122.19 91.03 122.17 90.87C122.14 90.63 122.1 90.39 122.05 90.15C122.01 89.91 121.96 89.67 121.92 89.43C121.87 89.19 121.82 88.95 121.76 88.72C121.7 88.48 121.64 88.24 121.58 88.01C121.57 87.96 121.56 87.91 121.55 87.87C121.48 87.6 121.39 87.33 121.31 87.06C121.28 86.94 121.24 86.81 121.19 86.69C121.15 86.55 121.1 86.41 121.05 86.28C121.03 86.23 121.02 86.18 121 86.13C121 86.12 121 86.11 120.99 86.11C120.89 85.81 120.78 85.51 120.65 85.21C120.63 85.18 120.62 85.14 120.6 85.09C120.59 85.07 120.58 85.05 120.58 85.03C120.57 85.01 120.56 84.98 120.55 84.97C119.85 83.22 118.95 81.53 117.85 79.93L114.04 83.74L112.78 82.49L116.78 78.49C116.35 77.94 115.88 77.4 115.4 76.88L83.3897 108.9L78.4297 113.86C78.4397 113.87 78.4497 113.87 78.4497 113.88C78.6597 114.08 78.8697 114.27 79.0897 114.45C79.0997 114.46 79.1097 114.47 79.1197 114.48C79.1797 114.53 79.2397 114.58 79.2997 114.63C79.5397 114.84 79.7897 115.04 80.0397 115.24L80.0497 115.23L83.9597 111.32L85.2197 112.57L81.4897 116.3C81.7697 116.49 82.0497 116.68 82.3297 116.86C82.6197 117.04 82.8997 117.21 83.1897 117.38C83.4697 117.55 83.7597 117.7 84.0397 117.86C84.0497 117.87 84.0597 117.87 84.0597 117.87C84.3497 118.03 84.6497 118.18 84.9497 118.32C85.2397 118.46 85.5497 118.6 85.8497 118.73C86.1497 118.86 86.4497 118.99 86.7597 119.11C86.8197 119.13 86.8797 119.16 86.9397 119.17H86.9497C96.2997 122.75 107.27 120.78 114.8 113.24C119.27 108.77 121.78 103.09 122.34 97.25C122.42 96.42 122.46 95.58 122.46 94.74C122.47 94.42 122.46 94.09 122.45 93.77ZM110.92 84.37L112.18 85.62L107.33 90.47L106.07 89.22L110.92 84.37ZM104.18 91.11L105.44 92.36L100.59 97.21L99.3297 95.96L104.18 91.11ZM97.4397 97.84L98.6997 99.09L93.8497 103.94L93.4497 103.54L92.5897 102.69L97.4397 97.84ZM85.8597 109.43L89.5997 105.69L90.7097 104.58L91.0297 104.9L91.9597 105.82L87.1097 110.67L85.8597 109.43Z" fill="url(#paint21_linear_606_86759)"/>
<path d="M112.56 74.23L108.64 78.15L107.39 76.89L111.12 73.16C100.93 66.14 86.8696 67.16 77.7996 76.22C68.7396 85.29 67.7196 99.34 74.7396 109.54L78.5596 105.72L79.8096 106.98L75.8096 110.98C76.0896 111.32 76.3696 111.66 76.6696 111.99C76.7396 112.08 76.8296 112.17 76.8996 112.26C76.9996 112.37 77.0996 112.47 77.1896 112.58L78.6596 111.11L114.16 75.61C113.65 75.14 113.11 74.67 112.56 74.23ZM81.6996 105.1L80.4496 103.84L85.2996 98.99L86.5496 100.25L81.6996 105.1ZM88.4296 98.36L87.1796 97.1L92.0296 92.25L93.2796 93.51L88.4296 98.36ZM95.1696 91.63L93.9196 90.37L98.7696 85.52L100.02 86.78L95.1696 91.63ZM101.91 84.89L100.66 83.63L105.51 78.78L106.76 80.04L101.91 84.89Z" fill="url(#paint22_linear_606_86759)"/>
<path d="M146.26 51.4C146.26 54.42 145.99 57.49 145.45 60.57C145.44 60.62 145.43 60.66 145.43 60.71L145.42 60.72C145.41 60.78 145.4 60.85 145.39 60.92C145.37 61.02 145.36 61.11 145.34 61.2C145.31 61.4 145.27 61.61 145.22 61.81C145.08 62.49 144.93 63.16 144.77 63.84C144.74 63.97 144.71 64.1 144.67 64.23C144.61 64.5 144.54 64.76 144.47 65.03C144.38 65.34 144.3 65.66 144.21 65.97C144.13 66.25 144.05 66.53 143.96 66.81C143.27 69.09 142.42 71.3 141.44 73.42C141.34 73.65 141.23 73.88 141.12 74.11C140.97 74.43 140.81 74.75 140.65 75.06C139.69 76.95 138.63 78.77 137.47 80.51C137.28 80.8 137.08 81.09 136.88 81.37C136.48 81.94 136.07 82.5 135.65 83.06C135.44 83.34 135.23 83.61 135.01 83.88C134.58 84.43 134.14 84.96 133.68 85.48C133.01 86.27 132.31 87.03 131.6 87.77C131.59 87.77 131.59 87.78 131.59 87.78C131.35 88.02 131.11 88.27 130.86 88.52C130.37 89.01 129.88 89.48 129.37 89.95C129.37 89.95 129.43 89.67 129.54 89.17C129.55 89.11 129.57 89.03 129.59 88.96C129.65 88.67 129.72 88.32 129.8 87.92C129.81 87.85 129.82 87.79 129.84 87.72C129.89 87.44 129.95 87.15 130.01 86.83C130.03 86.76 130.04 86.67 130.06 86.59C130.09 86.46 130.11 86.31 130.14 86.17C130.17 86.01 130.2 85.85 130.23 85.68C130.27 85.47 130.3 85.25 130.35 85.03C130.4 84.72 130.45 84.41 130.5 84.09C130.62 83.34 130.74 82.56 130.85 81.75C130.87 81.64 130.88 81.53 130.9 81.41C130.93 81.2 130.96 80.99 130.98 80.77C131 80.58 131.03 80.38 131.05 80.19C131.22 78.65 131.36 77.08 131.4 75.59C131.4 75.58 131.4 75.58 131.4 75.58C131.43 74.25 131.39 72.99 131.26 71.89C130.61 66.75 121.85 53.85 112.83 41.6C111.92 40.37 111.01 39.14 110.11 37.93C109.66 37.32 109.22 36.72 108.82 36.11C108.69 35.91 108.56 35.72 108.44 35.53C108.35 35.4 108.27 35.27 108.2 35.15C108.06 34.94 107.93 34.72 107.8 34.51C107.65 34.26 107.5 34.02 107.36 33.77C107.16 33.44 106.98 33.1 106.79 32.77C106.44 32.14 106.11 31.5 105.81 30.87C105.73 30.7 105.65 30.53 105.57 30.36C105.46 30.13 105.36 29.9 105.25 29.68C105.25 29.67 105.24 29.66 105.24 29.66C104.91 28.92 104.61 28.19 104.34 27.46C104.13 26.91 103.93 26.37 103.76 25.82C103.66 25.54 103.57 25.26 103.49 24.98C103.31 24.41 103.15 23.86 103 23.3C102.95 23.11 102.9 22.92 102.86 22.74C102.62 21.82 102.43 20.9 102.26 20C102.21 19.74 102.17 19.49 102.13 19.23C102.07 18.91 102.03 18.6 101.99 18.29C101.96 18.08 101.93 17.86 101.9 17.65C101.87 17.39 101.84 17.15 101.81 16.9C101.78 16.64 101.75 16.39 101.73 16.13C101.71 15.87 101.68 15.63 101.67 15.38C101.65 15.11 101.63 14.83 101.61 14.57C101.6 14.36 101.59 14.15 101.58 13.94C101.16 5.77 103.09 0 103.09 0C103.48 0.07 103.88 0.14 104.27 0.22C104.43 0.25 104.59 0.28 104.75 0.32C105.38 0.45 105.99 0.59 106.6 0.74C109.68 1.5 112.63 2.52 115.44 3.79C115.79 3.94 116.14 4.11 116.49 4.27C117.18 4.6 117.87 4.95 118.54 5.31C118.7 5.39 118.86 5.48 119.03 5.57C119.27 5.7 119.51 5.83 119.74 5.96C120.16 6.2 120.58 6.44 120.99 6.68C121.24 6.83 121.49 6.98 121.73 7.14C122.05 7.34 122.38 7.55 122.7 7.76C123.05 7.99 123.4 8.23 123.75 8.47C124.02 8.66 124.28 8.84 124.54 9.03C125.1 9.43 125.64 9.83 126.17 10.26C126.37 10.41 126.56 10.57 126.76 10.73C126.95 10.87 127.12 11.02 127.31 11.17C127.58 11.39 127.84 11.62 128.11 11.84C128.5 12.18 128.89 12.52 129.27 12.88C129.47 13.06 129.67 13.24 129.87 13.44C130.11 13.66 130.35 13.89 130.58 14.12C130.92 14.45 131.25 14.78 131.57 15.11C131.81 15.35 132.04 15.6 132.27 15.85C132.53 16.12 132.78 16.41 133.03 16.69C133.33 17.03 133.63 17.37 133.92 17.71C134.12 17.94 134.31 18.17 134.5 18.41C134.66 18.6 134.81 18.79 134.96 18.98C135.29 19.39 135.61 19.81 135.93 20.23C135.97 20.29 136.01 20.34 136.05 20.4C136.21 20.61 136.36 20.83 136.52 21.04C136.89 21.55 137.25 22.08 137.6 22.6C137.76 22.84 137.91 23.08 138.07 23.32C138.24 23.59 138.41 23.87 138.58 24.14C138.77 24.43 138.94 24.73 139.11 25.03C139.74 26.09 140.32 27.17 140.87 28.27C141.13 28.78 141.37 29.3 141.6 29.81C141.74 30.11 141.87 30.41 142 30.71C142.07 30.88 142.15 31.05 142.22 31.22C142.7 32.35 143.13 33.49 143.53 34.66C143.64 34.97 143.74 35.29 143.84 35.6C143.85 35.63 143.86 35.66 143.87 35.7C143.98 36.04 144.08 36.37 144.18 36.71C144.31 37.13 144.43 37.56 144.54 37.99C144.65 38.41 144.76 38.83 144.85 39.25C144.88 39.35 144.9 39.45 144.92 39.54C145.02 39.98 145.12 40.41 145.21 40.86C145.31 41.31 145.4 41.77 145.48 42.23C145.49 42.26 145.49 42.3 145.5 42.33C145.58 42.78 145.66 43.24 145.72 43.7C145.74 43.81 145.75 43.92 145.77 44.05C145.82 44.36 145.86 44.67 145.89 44.98C145.92 45.15 145.94 45.32 145.95 45.49C146.01 45.98 146.06 46.47 146.1 46.96C146.14 47.41 146.17 47.87 146.2 48.33C146.23 48.79 146.25 49.26 146.26 49.73C146.27 49.79 146.27 49.86 146.27 49.92C146.25 50.43 146.26 50.92 146.26 51.4Z" fill="url(#paint23_linear_606_86759)"/>
</g>
<defs>
<linearGradient id="paint0_linear_606_86759" x1="-0.1455" y1="169.375" x2="28.9882" y2="198.509" gradientUnits="userSpaceOnUse">
<stop stop-color="white"/>
<stop offset="1" stop-color="white" stop-opacity="0.2"/>
</linearGradient>
<linearGradient id="paint1_linear_606_86759" x1="43.9494" y1="178.621" x2="76.4874" y2="211.159" gradientUnits="userSpaceOnUse">
<stop stop-color="white"/>
<stop offset="1" stop-color="white" stop-opacity="0.2"/>
</linearGradient>
<linearGradient id="paint2_linear_606_86759" x1="83.217" y1="160.646" x2="115.749" y2="193.178" gradientUnits="userSpaceOnUse">
<stop stop-color="white"/>
<stop offset="1" stop-color="white" stop-opacity="0.2"/>
</linearGradient>
<linearGradient id="paint3_linear_606_86759" x1="129.221" y1="170.893" x2="159.3" y2="200.972" gradientUnits="userSpaceOnUse">
<stop stop-color="white"/>
<stop offset="1" stop-color="white" stop-opacity="0.2"/>
</linearGradient>
<linearGradient id="paint4_linear_606_86759" x1="164.703" y1="174.468" x2="191.168" y2="200.932" gradientUnits="userSpaceOnUse">
<stop stop-color="white"/>
<stop offset="1" stop-color="white" stop-opacity="0.2"/>
</linearGradient>
<linearGradient id="paint5_linear_606_86759" x1="186.336" y1="174.468" x2="212.801" y2="200.932" gradientUnits="userSpaceOnUse">
<stop stop-color="white"/>
<stop offset="1" stop-color="white" stop-opacity="0.2"/>
</linearGradient>
<linearGradient id="paint6_linear_606_86759" x1="34.018" y1="93.1378" x2="62.208" y2="133.106" gradientUnits="userSpaceOnUse">
<stop stop-color="white"/>
<stop offset="1" stop-color="white" stop-opacity="0.2"/>
</linearGradient>
<linearGradient id="paint7_linear_606_86759" x1="76.701" y1="112.046" x2="76.8736" y2="112.23" gradientUnits="userSpaceOnUse">
<stop stop-color="white"/>
<stop offset="1" stop-color="white" stop-opacity="0.2"/>
</linearGradient>
<linearGradient id="paint8_linear_606_86759" x1="86.8548" y1="119.09" x2="86.8823" y2="119.172" gradientUnits="userSpaceOnUse">
<stop stop-color="white"/>
<stop offset="1" stop-color="white" stop-opacity="0.2"/>
</linearGradient>
<linearGradient id="paint9_linear_606_86759" x1="120.571" y1="84.9806" x2="120.606" y2="84.9969" gradientUnits="userSpaceOnUse">
<stop stop-color="white"/>
<stop offset="1" stop-color="white" stop-opacity="0.2"/>
</linearGradient>
<linearGradient id="paint10_linear_606_86759" x1="145.38" y1="60.8105" x2="145.44" y2="60.8248" gradientUnits="userSpaceOnUse">
<stop stop-color="white"/>
<stop offset="1" stop-color="white" stop-opacity="0.2"/>
</linearGradient>
<linearGradient id="paint11_linear_606_86759" x1="134.103" y1="42.9318" x2="172.257" y2="64.5758" gradientUnits="userSpaceOnUse">
<stop stop-color="white"/>
<stop offset="1" stop-color="white" stop-opacity="0.2"/>
</linearGradient>
<linearGradient id="paint12_linear_606_86759" x1="45.403" y1="76.5202" x2="46.2689" y2="76.9029" gradientUnits="userSpaceOnUse">
<stop stop-color="white"/>
<stop offset="1" stop-color="white" stop-opacity="0.2"/>
</linearGradient>
<linearGradient id="paint13_linear_606_86759" x1="34.0997" y1="92.3391" x2="55.1496" y2="109.214" gradientUnits="userSpaceOnUse">
<stop stop-color="white"/>
<stop offset="1" stop-color="white" stop-opacity="0.2"/>
</linearGradient>
<linearGradient id="paint14_linear_606_86759" x1="140.256" y1="26.5093" x2="157.007" y2="39.1663" gradientUnits="userSpaceOnUse">
<stop stop-color="white"/>
<stop offset="1" stop-color="white" stop-opacity="0.2"/>
</linearGradient>
<linearGradient id="paint15_linear_606_86759" x1="72.6059" y1="9.5894" x2="82.1961" y2="14.141" gradientUnits="userSpaceOnUse">
<stop stop-color="white"/>
<stop offset="1" stop-color="white" stop-opacity="0.2"/>
</linearGradient>
<linearGradient id="paint16_linear_606_86759" x1="76.7657" y1="10.279" x2="85.4403" y2="19.9499" gradientUnits="userSpaceOnUse">
<stop stop-color="white"/>
<stop offset="1" stop-color="white" stop-opacity="0.2"/>
</linearGradient>
<linearGradient id="paint17_linear_606_86759" x1="44.9993" y1="50.5017" x2="95.0375" y2="81.1147" gradientUnits="userSpaceOnUse">
<stop stop-color="white"/>
<stop offset="1" stop-color="white" stop-opacity="0.2"/>
</linearGradient>
<linearGradient id="paint18_linear_606_86759" x1="45.403" y1="76.5205" x2="46.2689" y2="76.9032" gradientUnits="userSpaceOnUse">
<stop stop-color="white"/>
<stop offset="1" stop-color="white" stop-opacity="0.2"/>
</linearGradient>
<linearGradient id="paint19_linear_606_86759" x1="45.403" y1="76.5205" x2="46.2689" y2="76.9032" gradientUnits="userSpaceOnUse">
<stop stop-color="white"/>
<stop offset="1" stop-color="white" stop-opacity="0.2"/>
</linearGradient>
<linearGradient id="paint20_linear_606_86759" x1="98.7795" y1="52.8358" x2="130.105" y2="76.7874" gradientUnits="userSpaceOnUse">
<stop stop-color="white"/>
<stop offset="1" stop-color="white" stop-opacity="0.2"/>
</linearGradient>
<linearGradient id="paint21_linear_606_86759" x1="86.8147" y1="83.5346" x2="115.12" y2="116.55" gradientUnits="userSpaceOnUse">
<stop stop-color="white"/>
<stop offset="1" stop-color="white" stop-opacity="0.2"/>
</linearGradient>
<linearGradient id="paint22_linear_606_86759" x1="79.0839" y1="74.7497" x2="107.379" y2="107.767" gradientUnits="userSpaceOnUse">
<stop stop-color="white"/>
<stop offset="1" stop-color="white" stop-opacity="0.2"/>
</linearGradient>
<linearGradient id="paint23_linear_606_86759" x1="98.7563" y1="32.9773" x2="149.575" y2="62.4879" gradientUnits="userSpaceOnUse">
<stop stop-color="white"/>
<stop offset="1" stop-color="white" stop-opacity="0.2"/>
</linearGradient>
<clipPath id="clip0_606_86759">
<rect width="210.02" height="204.45" fill="white"/>
</clipPath>
</defs>
</svg>
