<svg width="345" height="102" viewBox="0 0 345 102" fill="none" xmlns="http://www.w3.org/2000/svg">
<g clip-path="url(#clip0_606_86813)">
<path d="M160.19 51.51C162.72 51.51 164.84 51.85 166.54 52.54C168.24 53.23 169.69 54.17 170.89 55.36C172.12 56.59 173.08 58.03 173.79 59.68C174.49 61.33 174.84 63.05 174.84 64.84C174.84 66.42 174.57 67.94 174.02 69.4C173.47 70.86 172.71 72.18 171.73 73.38C170.5 74.86 168.95 76.02 167.09 76.88C165.23 77.74 162.93 78.17 160.19 78.17H143.8V87.13H134.26V53.73C134.26 52.25 135.03 51.52 136.58 51.52H160.19V51.51ZM160.4 69.42C161.45 69.42 162.3 69.27 162.95 68.97C163.6 68.67 164.12 68.26 164.5 67.73C165.06 66.99 165.34 66.15 165.34 65.2C165.34 64.18 165.04 63.29 164.44 62.51C164.05 62.02 163.54 61.63 162.89 61.35C162.24 61.07 161.41 60.93 160.39 60.93H144.48C144.02 60.93 143.79 61.18 143.79 61.67V69.42H160.4V69.42Z" fill="url(#paint0_linear_606_86813)"/>
<path d="M217.62 85.55C217.76 85.83 217.87 86.1 217.96 86.34C218.05 86.59 218.13 86.85 218.2 87.13H207.45C207.38 86.88 207.31 86.66 207.24 86.47C207.17 86.28 207.1 86.09 207.03 85.92L205.13 81.6H184.05L182.21 85.87C182.14 86.08 182.07 86.29 182 86.5C181.93 86.71 181.88 86.92 181.84 87.13H170.83C170.9 86.85 170.98 86.59 171.07 86.34C171.16 86.09 171.27 85.83 171.41 85.55L184.16 57.31C185.18 55.1 186.51 53.45 188.16 52.36C189.81 51.27 191.92 50.73 194.48 50.73C196.97 50.73 199.05 51.27 200.72 52.36C202.39 53.45 203.73 55.1 204.75 57.31L217.62 85.55ZM201.65 73.75L196.17 61C195.99 60.61 195.77 60.33 195.48 60.16C195.2 59.98 194.88 59.9 194.53 59.9C194.21 59.9 193.91 59.98 193.63 60.14C193.35 60.3 193.12 60.59 192.94 61.01L187.51 73.76H201.65V73.75Z" fill="url(#paint1_linear_606_86813)"/>
<path d="M210.609 53.09C210.469 52.81 210.359 52.55 210.269 52.3C210.179 52.05 210.099 51.79 210.029 51.51H221.309C221.419 51.97 221.539 52.39 221.679 52.77L232.319 77.38C232.499 77.77 232.709 78.05 232.979 78.22C233.239 78.4 233.529 78.48 233.849 78.48C234.169 78.48 234.449 78.4 234.689 78.24C234.939 78.08 235.149 77.79 235.319 77.37L245.859 52.76C246.039 52.37 246.179 51.95 246.279 51.5H257.399C257.329 51.78 257.249 52.05 257.159 52.29C257.069 52.54 256.959 52.8 256.819 53.08L244.069 81.32C243.049 83.53 241.719 85.18 240.069 86.25C238.419 87.32 236.329 87.86 233.799 87.86C228.879 87.86 225.439 85.68 223.469 81.33L210.609 53.09Z" fill="url(#paint2_linear_606_86813)"/>
<path d="M274.78 87.13C271.58 87.13 268.81 86.61 266.46 85.58C264.11 84.54 262.1 83.13 260.45 81.34C259.01 79.76 257.89 77.95 257.08 75.91C256.27 73.87 255.87 71.68 255.87 69.32C255.87 66.72 256.38 64.3 257.4 62.05C258.42 59.8 259.82 57.85 261.62 56.2C263.2 54.72 265.07 53.57 267.23 52.75C269.39 51.93 271.91 51.51 274.79 51.51H282.27C285.15 51.51 287.67 51.92 289.83 52.75C291.99 53.58 293.86 54.73 295.44 56.2C297.23 57.85 298.64 59.8 299.66 62.05C300.68 64.3 301.19 66.72 301.19 69.32C301.19 71.67 300.79 73.87 299.98 75.91C299.17 77.95 298.05 79.76 296.61 81.34C294.96 83.13 292.96 84.55 290.6 85.58C288.25 86.62 285.47 87.13 282.27 87.13H274.78ZM274.78 60.94C273.16 60.94 271.83 61.15 270.78 61.57C269.73 61.99 268.81 62.55 268.04 63.26C267.23 64.03 266.59 64.95 266.12 66C265.65 67.05 265.41 68.18 265.41 69.37C265.41 70.46 265.6 71.49 265.99 72.45C266.38 73.42 266.92 74.27 267.62 75.01C268.39 75.85 269.36 76.52 270.52 77.01C271.68 77.5 273.1 77.75 274.79 77.75H282.27C283.96 77.75 285.38 77.5 286.54 77.01C287.7 76.52 288.66 75.85 289.44 75.01C290.14 74.27 290.69 73.42 291.07 72.45C291.46 71.48 291.65 70.46 291.65 69.37C291.65 68.18 291.41 67.05 290.94 66C290.47 64.95 289.82 64.03 289.02 63.26C288.25 62.56 287.33 62 286.28 61.57C285.23 61.15 283.89 60.94 282.28 60.94H274.78Z" fill="url(#paint3_linear_606_86813)"/>
<path d="M319.04 80.51V60.99C319.04 59.34 318.89 57.92 318.59 56.72C318.29 55.53 317.8 54.54 317.11 53.77C316.42 53 315.52 52.43 314.4 52.06C313.28 51.69 311.89 51.51 310.24 51.51H305.34V60.94H308.19C309.1 60.94 309.56 61.43 309.56 62.42V80.51H305.95V87.13H309.56H311.61H319.05H322.66V80.51H319.04V80.51Z" fill="url(#paint4_linear_606_86813)"/>
<path d="M340.67 80.51V60.99C340.67 59.34 340.52 57.92 340.22 56.72C339.92 55.53 339.43 54.54 338.74 53.77C338.05 53 337.15 52.43 336.03 52.06C334.91 51.69 333.52 51.51 331.87 51.51H326.97V60.94H329.82C330.73 60.94 331.19 61.43 331.19 62.42V80.51H327.58V87.13H331.19H333.24H340.68H344.29V80.51H340.67V80.51Z" fill="url(#paint5_linear_606_86813)"/>
<path d="M43.6403 94.97C24.3003 103.4 7.9403 104.58 2.1503 96.55C-2.5197 90.09 0.650297 79 9.4303 66.73C9.5803 66.51 9.7403 66.3 9.9003 66.07L9.1303 68.1C8.9303 68.41 8.7403 68.72 8.5503 69.04C3.4303 77.49 1.9203 84.77 5.1203 89.21C9.4703 95.24 21.5103 94.67 36.4003 88.85C38.3903 91.34 40.8403 93.43 43.6403 94.97Z" fill="url(#paint6_linear_606_86813)"/>
<path d="M40.0904 87.63C40.0204 87.57 39.9604 87.49 39.9004 87.43C39.9004 87.43 39.9004 87.43 39.9104 87.43C39.9704 87.49 40.0304 87.56 40.0904 87.63Z" fill="url(#paint7_linear_606_86813)"/>
<path d="M47.9408 93C47.8908 92.99 47.8408 92.97 47.8008 92.95C47.8508 92.97 47.8908 92.99 47.9408 93Z" fill="url(#paint8_linear_606_86813)"/>
<path d="M74.2007 66.36C74.2007 66.34 74.1907 66.32 74.1807 66.31C74.1907 66.33 74.1907 66.34 74.2007 66.36Z" fill="url(#paint9_linear_606_86813)"/>
<path d="M93.5808 47.39C93.5708 47.44 93.5608 47.5 93.5508 47.55C93.5508 47.5 93.5608 47.44 93.5808 47.39Z" fill="url(#paint10_linear_606_86813)"/>
<path d="M87.2305 66.12C91.3805 60.74 94.1605 54.44 95.3705 47.59C95.5505 46.58 95.6905 45.57 95.8005 44.56C104.04 33.62 107.25 23.87 103.3 18.4C100.59 14.64 94.9105 13.45 87.4105 14.49C87.2705 14.3 87.1305 14.11 86.9805 13.93C98.1605 11.57 106.87 12.8 110.77 18.21C117.67 27.77 107.42 47.46 87.2305 66.12Z" fill="url(#paint11_linear_606_86813)"/>
<path d="M16.0905 59.16C15.8905 59.62 15.7105 60.09 15.5605 60.57C15.7105 60.09 15.8905 59.62 16.0905 59.16Z" fill="url(#paint12_linear_606_86813)"/>
<path d="M24.4799 88.94C20.0999 89.4 9.56995 92.44 7.01995 83.3C5.52995 77.96 9.46995 69.79 13.01 63.92C12.97 64.28 12.94 64.65 12.92 65.02C12.77 68.25 13.45 71.42 14.85 74.26C13.56 78.36 12.9 82.64 14.45 84.81C17.61 89.25 23.8999 88.98 24.4799 88.94Z" fill="url(#paint13_linear_606_86813)"/>
<path d="M98.3203 36.63C98.3203 36.63 100.28 25.82 96.9703 23.27C95.5903 22.2 93.6803 21.91 91.9303 21.93C90.9103 19.8 89.7103 17.73 88.3303 15.76C88.3303 15.76 88.3203 15.75 88.3203 15.74C91.7503 15.77 97.5503 16.36 100.21 19.74C104.11 24.69 100.05 33.7 98.3203 36.63Z" fill="url(#paint14_linear_606_86813)"/>
<path d="M43.4101 3.73C43.4901 2.71 43.0001 1.73 42.0001 1.51C41.0001 1.29 40.0001 1.92 39.7801 2.92C39.7801 2.92 38.4401 5.18 37.3701 16.32C37.3701 16.32 39.1901 11.32 39.8701 10.04C40.8001 8.3 43.3701 4.26 43.4101 3.73Z" fill="url(#paint15_linear_606_86813)"/>
<path d="M48.1102 8.82C48.5702 8.03 48.5502 7.06 47.8302 6.49C47.1102 5.92 46.0702 6.05 45.5002 6.77C45.5002 6.77 43.5602 8.07 38.4102 16.61C38.4102 16.61 41.7902 13.29 42.8402 12.53C44.2602 11.49 47.8802 9.23 48.1102 8.82Z" fill="url(#paint16_linear_606_86813)"/>
<path d="M32.2907 62.45C31.0407 64.41 29.0207 68.54 29.2007 71.89C29.2907 73.72 29.6207 75.5 30.1407 77.18C30.1407 77.18 30.1407 77.19 30.1407 77.2C30.2207 77.62 31.5907 84.36 34.8207 86.38C34.8507 86.4 34.8707 86.42 34.9007 86.43C32.0607 85.57 27.9807 83.92 23.3707 80.77C22.1407 80.07 21.0107 79.23 20.0007 78.25C20.0007 78.25 19.9907 78.25 19.9907 78.24C19.7907 78.05 19.5907 77.85 19.4007 77.64C19.3807 77.62 19.3607 77.6 19.3407 77.58C19.1607 77.39 18.9907 77.2 18.8307 77.01C18.8207 77 18.8107 76.99 18.8007 76.98C18.7107 76.89 18.6307 76.79 18.5607 76.69C18.4707 76.58 18.3807 76.47 18.3007 76.36C18.2007 76.23 18.1007 76.1 18.0107 75.97C17.9407 75.87 17.8607 75.77 17.8007 75.67C17.7007 75.52 17.6007 75.38 17.5107 75.24C17.4207 75.11 17.3307 74.97 17.2507 74.83C17.0807 74.55 16.9207 74.27 16.7607 73.98C16.6907 73.85 16.6207 73.73 16.5607 73.6C16.5407 73.56 16.5207 73.52 16.5007 73.48C16.4107 73.31 16.3307 73.14 16.2607 72.96C16.1607 72.74 16.0707 72.53 15.9807 72.31C15.9207 72.18 15.8707 72.04 15.8207 71.91C15.8007 71.85 15.7807 71.79 15.7507 71.73C15.7407 71.7 15.7307 71.68 15.7207 71.65C15.7207 71.64 15.7107 71.63 15.7107 71.62C15.6407 71.44 15.5807 71.27 15.5307 71.09C15.5107 71.04 15.5007 70.99 15.4907 70.94C15.4407 70.78 15.3907 70.61 15.3407 70.44V70.43C15.3207 70.38 15.3107 70.32 15.3007 70.26C15.2707 70.16 15.2407 70.04 15.2107 69.93C15.2107 69.92 15.2107 69.92 15.2107 69.91C15.2107 69.9 15.2107 69.89 15.2007 69.87C15.1807 69.8 15.1607 69.72 15.1507 69.65C15.1007 69.42 15.0507 69.2 15.0107 68.97C14.9907 68.88 14.9707 68.78 14.9607 68.69C14.9007 68.33 14.8507 67.96 14.8107 67.59C14.8007 67.49 14.7907 67.39 14.7807 67.3C14.7807 67.28 14.7807 67.26 14.7807 67.24C14.7707 67.11 14.7607 66.98 14.7507 66.85C14.7507 66.79 14.7507 66.72 14.7407 66.66C14.7307 66.41 14.7207 66.15 14.7207 65.9C14.7207 65.63 14.7207 65.36 14.7407 65.09C14.7507 64.89 14.7607 64.69 14.7807 64.49C14.7907 64.37 14.8007 64.26 14.8107 64.15C14.8307 63.96 14.8507 63.77 14.8807 63.58C14.8807 63.52 14.8907 63.46 14.9107 63.4C14.9307 63.23 14.9607 63.06 14.9907 62.89C15.0007 62.81 15.0207 62.74 15.0307 62.66C15.0307 62.65 15.0307 62.63 15.0407 62.62C15.0807 62.42 15.1207 62.23 15.1707 62.03C15.2107 61.83 15.2607 61.63 15.3207 61.44C15.3407 61.35 15.3607 61.27 15.3907 61.18C15.4207 61.08 15.4507 60.97 15.4807 60.87C15.5107 60.77 15.5407 60.67 15.5707 60.56C15.7307 60.08 15.9007 59.62 16.1007 59.15C16.1007 59.15 16.1007 59.15 16.1007 59.14C16.1907 58.92 16.2907 58.71 16.3907 58.49C16.4107 58.45 16.4307 58.4 16.4507 58.36C16.5507 58.15 16.6607 57.94 16.7707 57.74C16.8807 57.53 17.0007 57.32 17.1207 57.12C17.1907 57 17.2607 56.89 17.3307 56.77C17.4207 56.62 17.5107 56.49 17.6107 56.34C17.7107 56.19 17.8207 56.03 17.9307 55.88C17.9507 55.85 17.9707 55.83 17.9907 55.79C18.1007 55.63 18.2207 55.47 18.3507 55.32L38.3907 36.02C38.8007 35.46 39.0507 34.77 39.0807 34.02C39.1807 31.97 37.5807 30.38 35.5507 30.14C35.3807 30.12 35.1907 30.11 34.9907 30.11C34.9307 30.11 34.8607 30.11 34.8007 30.11C34.7307 30.11 34.6707 30.11 34.6007 30.12C34.3707 30.13 34.1207 30.16 33.8607 30.19C33.7607 30.2 33.6607 30.22 33.5507 30.23C33.3607 30.26 33.1707 30.29 32.9707 30.33C32.8407 30.36 32.7007 30.38 32.5707 30.42C32.4107 30.46 32.2507 30.5 32.0807 30.54C31.9107 30.58 31.7507 30.63 31.5707 30.67C31.4007 30.71 31.2307 30.76 31.0607 30.82C30.8907 30.87 30.7207 30.92 30.5507 30.97C30.3807 31.02 30.2007 31.08 30.0307 31.14C29.8507 31.19 29.6807 31.25 29.5107 31.31C29.0307 31.47 28.5607 31.64 28.1007 31.81C27.9707 31.86 27.8407 31.91 27.7107 31.96C27.5007 32.04 27.2907 32.12 27.0907 32.2C26.8907 32.28 26.6907 32.36 26.4907 32.44C26.3407 32.5 26.1807 32.56 26.0307 32.63C25.8807 32.69 25.7307 32.76 25.5807 32.82C25.4307 32.88 25.2907 32.94 25.1507 33C24.9407 33.09 24.7407 33.18 24.5607 33.26C24.4907 33.29 24.4307 33.31 24.3707 33.34C24.2507 33.39 24.1307 33.44 24.0207 33.49C23.9107 33.54 23.8007 33.59 23.7007 33.64C23.6007 33.68 23.5007 33.73 23.4107 33.77C23.3207 33.81 23.2307 33.85 23.1607 33.89C23.1107 33.91 23.0507 33.94 23.0107 33.96C22.9607 33.98 22.9207 34 22.8707 34.02C22.7007 34.1 22.5807 34.16 22.5207 34.18C22.4907 34.19 22.4807 34.2 22.4807 34.2C23.9307 27.99 26.9507 25.97 26.9507 25.97C28.8907 21.81 33.1207 18.96 37.9507 18.96C38.1407 18.96 38.3307 18.96 38.5207 18.97C45.2207 19.28 50.3907 24.96 50.0807 31.66C50.0807 31.66 50.5107 35.58 47.6807 40.25C44.8207 44.96 33.5507 60.49 32.2907 62.45Z" fill="url(#paint17_linear_606_86813)"/>
<path d="M16.0905 59.16C15.8905 59.62 15.7105 60.09 15.5605 60.57C15.7105 60.09 15.8905 59.62 16.0905 59.16Z" fill="url(#paint18_linear_606_86813)"/>
<path d="M15.5605 60.57C15.7205 60.09 15.8905 59.63 16.0905 59.16C15.8905 59.62 15.7105 60.09 15.5605 60.57Z" fill="url(#paint19_linear_606_86813)"/>
<path d="M80.3406 61.08C80.0206 65.76 78.8306 70.92 78.8306 70.92C78.8306 67.88 78.5806 66.7 77.2606 63.76C77.1006 63.4 76.9206 63 76.7206 62.58C74.9206 58.73 69.3006 55.84 62.4206 50.02C55.5506 44.2 54.8906 32.05 54.8906 32.05C55.4006 32.01 55.8906 31.99 56.3906 31.98C61.8006 31.83 66.9206 34.49 70.0406 38.91C75.4206 46.52 79.8906 53.61 80.2906 56.83C80.4506 58.07 80.4406 59.55 80.3406 61.08Z" fill="url(#paint20_linear_606_86813)"/>
<path d="M75.6408 73.19C75.6308 72.95 75.6208 72.71 75.6008 72.46C75.6008 72.44 75.6008 72.42 75.6008 72.4C75.5808 72.16 75.5608 71.91 75.5308 71.67C75.5208 71.54 75.5008 71.42 75.4908 71.29C75.4708 71.16 75.4508 71.04 75.4408 70.91C75.4108 70.72 75.3808 70.54 75.3508 70.35C75.3208 70.16 75.2808 69.97 75.2508 69.79C75.2108 69.6 75.1708 69.42 75.1208 69.23C75.0808 69.04 75.0308 68.86 74.9808 68.67C74.9708 68.63 74.9608 68.59 74.9508 68.56C74.8908 68.35 74.8308 68.14 74.7608 67.93C74.7308 67.84 74.7008 67.74 74.6708 67.64C74.6408 67.53 74.6008 67.42 74.5608 67.32C74.5508 67.28 74.5308 67.24 74.5208 67.2C74.5208 67.2 74.5208 67.19 74.5208 67.18C74.4408 66.95 74.3508 66.71 74.2608 66.48C74.2508 66.45 74.2408 66.42 74.2208 66.39C74.2208 66.37 74.2108 66.36 74.2008 66.35C74.2008 66.33 74.1908 66.31 74.1808 66.3C73.6308 64.93 72.9308 63.61 72.0708 62.37L69.0908 65.35L68.1108 64.37L71.2308 61.25C70.8908 60.82 70.5308 60.4 70.1508 59.99L45.1708 84.98L41.3008 88.85C41.3008 88.85 41.3108 88.86 41.3208 88.86C41.4808 89.01 41.6508 89.16 41.8208 89.31C41.8308 89.32 41.8408 89.33 41.8508 89.34C41.8908 89.38 41.9408 89.42 41.9908 89.46C42.1808 89.62 42.3708 89.78 42.5608 89.93L45.6108 86.88L46.5908 87.86L43.6808 90.77C43.9008 90.92 44.1208 91.06 44.3408 91.2C44.5708 91.34 44.7908 91.48 45.0108 91.61C45.2308 91.74 45.4508 91.86 45.6708 91.98C45.6808 91.98 45.6808 91.98 45.6908 91.99C45.9208 92.11 46.1508 92.23 46.3908 92.34C46.6208 92.45 46.8608 92.56 47.0908 92.66C47.3208 92.76 47.5608 92.86 47.8008 92.95C47.8508 92.97 47.8908 92.99 47.9408 93C55.2308 95.8 63.8008 94.26 69.6808 88.38C73.1708 84.89 75.1308 80.46 75.5608 75.9C75.6208 75.25 75.6508 74.6 75.6508 73.94C75.6608 73.69 75.6508 73.44 75.6408 73.19ZM66.6408 65.85L67.6208 66.83L63.8408 70.61L62.8608 69.63L66.6408 65.85ZM61.3808 71.11L62.3608 72.09L58.5808 75.87L57.6008 74.89L61.3808 71.11ZM56.1208 76.37L57.1008 77.35L53.3208 81.13L53.0108 80.82L52.3408 80.16L56.1208 76.37ZM47.0808 85.41L50.0008 82.49L50.8708 81.62L51.1208 81.87L51.8508 82.59L48.0708 86.37L47.0808 85.41Z" fill="url(#paint21_linear_606_86813)"/>
<path d="M67.9207 57.94L64.8607 61L63.8807 60.02L66.7907 57.11C58.8407 51.63 47.8607 52.43 40.7907 59.5C33.7207 66.58 32.9207 77.55 38.4007 85.5L41.3807 82.52L42.3607 83.5L39.2407 86.62C39.4607 86.89 39.6807 87.15 39.9107 87.41C39.9707 87.48 40.0307 87.55 40.0907 87.62C40.1707 87.71 40.2407 87.79 40.3207 87.87L41.4707 86.72L69.1807 59.01C68.7707 58.64 68.3507 58.28 67.9207 57.94ZM43.8307 82.03L42.8507 81.05L46.6307 77.27L47.6107 78.25L43.8307 82.03ZM49.0907 76.77L48.1107 75.79L51.8907 72.01L52.8707 72.99L49.0907 76.77ZM54.3507 71.52L53.3707 70.54L57.1507 66.76L58.1307 67.74L54.3507 71.52ZM59.6107 66.26L58.6307 65.28L62.4107 61.5L63.3907 62.48L59.6107 66.26Z" fill="url(#paint22_linear_606_86813)"/>
<path d="M94.2204 40.12C94.2204 42.48 94.0104 44.87 93.5904 47.28C93.5904 47.32 93.5804 47.35 93.5704 47.39C93.5604 47.44 93.5504 47.49 93.5404 47.54C93.5304 47.62 93.5104 47.69 93.5004 47.76C93.4704 47.92 93.4404 48.08 93.4104 48.23C93.3004 48.76 93.1804 49.29 93.0604 49.81C93.0404 49.91 93.0104 50.01 92.9804 50.12C92.9304 50.33 92.8804 50.54 92.8204 50.74C92.7504 50.98 92.6804 51.23 92.6204 51.47C92.5604 51.69 92.4904 51.91 92.4304 52.13C91.8904 53.91 91.2204 55.63 90.4604 57.29C90.3804 57.47 90.2904 57.65 90.2104 57.83C90.0904 58.08 89.9704 58.33 89.8504 58.57C89.1004 60.05 88.2704 61.47 87.3704 62.82C87.2204 63.05 87.0704 63.27 86.9104 63.49C86.6004 63.94 86.2804 64.38 85.9504 64.81C85.7804 65.03 85.6204 65.24 85.4504 65.45C85.1104 65.88 84.7704 66.29 84.4204 66.7C83.9004 67.31 83.3504 67.91 82.8004 68.49C82.8004 68.49 82.7904 68.49 82.7904 68.5C82.6004 68.69 82.4204 68.88 82.2204 69.07C81.8404 69.45 81.4504 69.82 81.0504 70.18C81.0504 70.18 81.1004 69.96 81.1904 69.57C81.2004 69.52 81.2104 69.46 81.2304 69.4C81.2704 69.17 81.3304 68.9 81.4004 68.59C81.4104 68.54 81.4204 68.49 81.4304 68.43C81.4704 68.21 81.5204 67.98 81.5604 67.73C81.5704 67.67 81.5904 67.61 81.6004 67.54C81.6204 67.44 81.6404 67.32 81.6604 67.22C81.6804 67.09 81.7004 66.97 81.7304 66.84C81.7604 66.67 81.7904 66.5 81.8204 66.33C81.8604 66.09 81.9004 65.85 81.9404 65.59C82.0304 65.01 82.1304 64.4 82.2104 63.77C82.2204 63.68 82.2404 63.59 82.2504 63.51C82.2704 63.35 82.2904 63.18 82.3104 63.01C82.3304 62.86 82.3504 62.71 82.3704 62.56C82.5104 61.36 82.6104 60.13 82.6404 58.97C82.6704 57.94 82.6404 56.95 82.5304 56.09C82.0004 52.11 75.1604 42.03 68.1204 32.48C67.4104 31.52 66.7004 30.56 65.9904 29.62C65.6404 29.15 65.3004 28.67 64.9804 28.2C64.8804 28.05 64.7804 27.9 64.6804 27.75C64.6104 27.65 64.5504 27.55 64.4904 27.45C64.3804 27.28 64.2804 27.12 64.1804 26.95C64.0604 26.76 63.9504 26.57 63.8304 26.37C63.6804 26.11 63.5304 25.85 63.3904 25.59C63.1204 25.1 62.8604 24.6 62.6204 24.11C62.5604 23.97 62.4904 23.84 62.4304 23.71C62.3404 23.53 62.2604 23.35 62.1804 23.18C62.1804 23.17 62.1804 23.17 62.1704 23.16C61.9104 22.59 61.6804 22.01 61.4704 21.44C61.3104 21.01 61.1504 20.59 61.0104 20.16C60.9304 19.94 60.8604 19.72 60.8004 19.5C60.6604 19.06 60.5304 18.62 60.4204 18.19C60.3804 18.04 60.3404 17.9 60.3104 17.75C60.1204 17.03 59.9704 16.31 59.8404 15.61C59.8004 15.41 59.7704 15.21 59.7404 15.01C59.7004 14.76 59.6604 14.52 59.6304 14.28C59.6004 14.11 59.5804 13.95 59.5604 13.78C59.5304 13.58 59.5104 13.39 59.4904 13.19C59.4704 12.99 59.4504 12.79 59.4304 12.59C59.4104 12.39 59.3904 12.2 59.3804 12C59.3604 11.79 59.3504 11.57 59.3404 11.37C59.3304 11.21 59.3204 11.05 59.3104 10.88C59.0204 4.5 60.5304 0 60.5304 0C60.8404 0.05 61.1404 0.11 61.4504 0.18C61.5804 0.2 61.7004 0.23 61.8204 0.26C62.3104 0.36 62.7904 0.47 63.2704 0.59C65.6704 1.18 67.9804 1.98 70.1704 2.97C70.4504 3.09 70.7204 3.22 70.9904 3.34C71.5304 3.6 72.0604 3.87 72.5904 4.15C72.7204 4.21 72.8404 4.28 72.9704 4.35C73.1604 4.45 73.3404 4.55 73.5204 4.66C73.8504 4.85 74.1804 5.03 74.4904 5.22C74.6804 5.34 74.8804 5.45 75.0704 5.58C75.3204 5.74 75.5804 5.9 75.8204 6.06C76.1004 6.24 76.3704 6.42 76.6404 6.61C76.8504 6.76 77.0504 6.9 77.2504 7.04C77.6804 7.36 78.1004 7.67 78.5204 8C78.6704 8.12 78.8304 8.24 78.9804 8.36C79.1304 8.47 79.2604 8.59 79.4104 8.71C79.6204 8.88 79.8304 9.06 80.0304 9.23C80.3404 9.49 80.6404 9.76 80.9404 10.04C81.1004 10.18 81.2504 10.32 81.4104 10.47C81.6004 10.64 81.7904 10.82 81.9704 11C82.2304 11.26 82.4904 11.51 82.7404 11.78C82.9304 11.97 83.1004 12.16 83.2904 12.36C83.4904 12.57 83.6904 12.79 83.8904 13.02C84.1204 13.28 84.3604 13.55 84.5904 13.82C84.7404 14 84.8904 14.18 85.0404 14.37C85.1704 14.52 85.2804 14.67 85.4004 14.82C85.6604 15.14 85.9104 15.47 86.1504 15.8C86.1804 15.84 86.2104 15.89 86.2404 15.93C86.3704 16.1 86.4804 16.26 86.6004 16.43C86.8904 16.83 87.1704 17.24 87.4404 17.65C87.5704 17.84 87.6804 18.03 87.8004 18.21C87.9304 18.42 88.0704 18.64 88.2004 18.85C88.3504 19.08 88.4804 19.31 88.6204 19.55C89.1104 20.38 89.5604 21.22 89.9904 22.08C90.1904 22.48 90.3804 22.88 90.5604 23.28C90.6704 23.51 90.7704 23.75 90.8704 23.98C90.9304 24.11 90.9904 24.25 91.0404 24.38C91.4204 25.26 91.7504 26.15 92.0604 27.07C92.1504 27.31 92.2304 27.56 92.3004 27.81C92.3104 27.83 92.3204 27.86 92.3204 27.89C92.4104 28.15 92.4904 28.41 92.5604 28.68C92.6604 29.01 92.7504 29.34 92.8404 29.68C92.9304 30 93.0104 30.34 93.0804 30.66C93.1004 30.74 93.1204 30.81 93.1404 30.89C93.2204 31.23 93.3004 31.57 93.3704 31.92C93.4504 32.27 93.5204 32.63 93.5804 32.99C93.5804 33.02 93.5904 33.04 93.5904 33.07C93.6504 33.42 93.7104 33.78 93.7704 34.14C93.7804 34.23 93.8004 34.32 93.8104 34.41C93.8504 34.65 93.8804 34.89 93.9004 35.14C93.9204 35.27 93.9404 35.41 93.9504 35.54C94.0004 35.92 94.0404 36.3 94.0704 36.69C94.1004 37.04 94.1304 37.4 94.1504 37.76C94.1704 38.12 94.1904 38.49 94.2004 38.85C94.2004 38.9 94.2004 38.95 94.2004 39C94.2204 39.36 94.2204 39.74 94.2204 40.12Z" fill="url(#paint23_linear_606_86813)"/>
</g>
<defs>
<linearGradient id="paint0_linear_606_86813" x1="134.12" y1="52.7881" x2="163.254" y2="81.9218" gradientUnits="userSpaceOnUse">
<stop stop-color="white"/>
<stop offset="1" stop-color="white" stop-opacity="0.2"/>
</linearGradient>
<linearGradient id="paint1_linear_606_86813" x1="178.215" y1="62.0338" x2="210.753" y2="94.5718" gradientUnits="userSpaceOnUse">
<stop stop-color="white"/>
<stop offset="1" stop-color="white" stop-opacity="0.2"/>
</linearGradient>
<linearGradient id="paint2_linear_606_86813" x1="217.482" y1="44.0586" x2="250.014" y2="76.5908" gradientUnits="userSpaceOnUse">
<stop stop-color="white"/>
<stop offset="1" stop-color="white" stop-opacity="0.2"/>
</linearGradient>
<linearGradient id="paint3_linear_606_86813" x1="263.486" y1="54.3057" x2="293.566" y2="84.3852" gradientUnits="userSpaceOnUse">
<stop stop-color="white"/>
<stop offset="1" stop-color="white" stop-opacity="0.2"/>
</linearGradient>
<linearGradient id="paint4_linear_606_86813" x1="298.969" y1="57.8811" x2="325.433" y2="84.3454" gradientUnits="userSpaceOnUse">
<stop stop-color="white"/>
<stop offset="1" stop-color="white" stop-opacity="0.2"/>
</linearGradient>
<linearGradient id="paint5_linear_606_86813" x1="320.602" y1="57.8811" x2="347.066" y2="84.3454" gradientUnits="userSpaceOnUse">
<stop stop-color="white"/>
<stop offset="1" stop-color="white" stop-opacity="0.2"/>
</linearGradient>
<linearGradient id="paint6_linear_606_86813" x1="6.6183" y1="72.6945" x2="28.6208" y2="103.89" gradientUnits="userSpaceOnUse">
<stop stop-color="white"/>
<stop offset="1" stop-color="white" stop-opacity="0.2"/>
</linearGradient>
<linearGradient id="paint7_linear_606_86813" x1="39.9325" y1="87.4529" x2="40.0672" y2="87.5964" gradientUnits="userSpaceOnUse">
<stop stop-color="white"/>
<stop offset="1" stop-color="white" stop-opacity="0.2"/>
</linearGradient>
<linearGradient id="paint8_linear_606_86813" x1="47.858" y1="92.9506" x2="47.8794" y2="93.0145" gradientUnits="userSpaceOnUse">
<stop stop-color="white"/>
<stop offset="1" stop-color="white" stop-opacity="0.2"/>
</linearGradient>
<linearGradient id="paint9_linear_606_86813" x1="74.1739" y1="66.3278" x2="74.2007" y2="66.3406" gradientUnits="userSpaceOnUse">
<stop stop-color="white"/>
<stop offset="1" stop-color="white" stop-opacity="0.2"/>
</linearGradient>
<linearGradient id="paint10_linear_606_86813" x1="93.5379" y1="47.4629" x2="93.5845" y2="47.4741" gradientUnits="userSpaceOnUse">
<stop stop-color="white"/>
<stop offset="1" stop-color="white" stop-opacity="0.2"/>
</linearGradient>
<linearGradient id="paint11_linear_606_86813" x1="84.7356" y1="33.5086" x2="114.515" y2="50.4018" gradientUnits="userSpaceOnUse">
<stop stop-color="white"/>
<stop offset="1" stop-color="white" stop-opacity="0.2"/>
</linearGradient>
<linearGradient id="paint12_linear_606_86813" x1="15.5048" y1="59.7244" x2="16.1806" y2="60.0231" gradientUnits="userSpaceOnUse">
<stop stop-color="white"/>
<stop offset="1" stop-color="white" stop-opacity="0.2"/>
</linearGradient>
<linearGradient id="paint13_linear_606_86813" x1="6.68155" y1="72.0712" x2="23.1111" y2="85.2421" gradientUnits="userSpaceOnUse">
<stop stop-color="white"/>
<stop offset="1" stop-color="white" stop-opacity="0.2"/>
</linearGradient>
<linearGradient id="paint14_linear_606_86813" x1="89.5382" y1="20.6906" x2="102.612" y2="30.5695" gradientUnits="userSpaceOnUse">
<stop stop-color="white"/>
<stop offset="1" stop-color="white" stop-opacity="0.2"/>
</linearGradient>
<linearGradient id="paint15_linear_606_86813" x1="36.7365" y1="7.4846" x2="44.2217" y2="11.0371" gradientUnits="userSpaceOnUse">
<stop stop-color="white"/>
<stop offset="1" stop-color="white" stop-opacity="0.2"/>
</linearGradient>
<linearGradient id="paint16_linear_606_86813" x1="39.9832" y1="8.0228" x2="46.7537" y2="15.571" gradientUnits="userSpaceOnUse">
<stop stop-color="white"/>
<stop offset="1" stop-color="white" stop-opacity="0.2"/>
</linearGradient>
<linearGradient id="paint17_linear_606_86813" x1="15.1899" y1="39.4169" x2="54.245" y2="63.3105" gradientUnits="userSpaceOnUse">
<stop stop-color="white"/>
<stop offset="1" stop-color="white" stop-opacity="0.2"/>
</linearGradient>
<linearGradient id="paint18_linear_606_86813" x1="15.5048" y1="59.7247" x2="16.1806" y2="60.0233" gradientUnits="userSpaceOnUse">
<stop stop-color="white"/>
<stop offset="1" stop-color="white" stop-opacity="0.2"/>
</linearGradient>
<linearGradient id="paint19_linear_606_86813" x1="15.5048" y1="59.7247" x2="16.1806" y2="60.0233" gradientUnits="userSpaceOnUse">
<stop stop-color="white"/>
<stop offset="1" stop-color="white" stop-opacity="0.2"/>
</linearGradient>
<linearGradient id="paint20_linear_606_86813" x1="57.1652" y1="41.2387" x2="81.615" y2="59.933" gradientUnits="userSpaceOnUse">
<stop stop-color="white"/>
<stop offset="1" stop-color="white" stop-opacity="0.2"/>
</linearGradient>
<linearGradient id="paint21_linear_606_86813" x1="47.8271" y1="65.1992" x2="69.9196" y2="90.9678" gradientUnits="userSpaceOnUse">
<stop stop-color="white"/>
<stop offset="1" stop-color="white" stop-opacity="0.2"/>
</linearGradient>
<linearGradient id="paint22_linear_606_86813" x1="41.7931" y1="58.3425" x2="63.8773" y2="84.1126" gradientUnits="userSpaceOnUse">
<stop stop-color="white"/>
<stop offset="1" stop-color="white" stop-opacity="0.2"/>
</linearGradient>
<linearGradient id="paint23_linear_606_86813" x1="57.1468" y1="25.7389" x2="96.8113" y2="48.7722" gradientUnits="userSpaceOnUse">
<stop stop-color="white"/>
<stop offset="1" stop-color="white" stop-opacity="0.2"/>
</linearGradient>
<clipPath id="clip0_606_86813">
<rect width="344.28" height="101.98" fill="white"/>
</clipPath>
</defs>
</svg>
