<svg id="person_photo" data-name="person photo" xmlns="http://www.w3.org/2000/svg" width="66" height="66" viewBox="0 0 66 66">
  <rect id="Rectangle_2263" data-name="Rectangle 2263" width="66" height="66" fill="#f7fbff"/>
  <path id="Path_3838" data-name="Path 3838" d="M-200.41-59.211c.02-1.418.414-5.074.414-5.074a11.13,11.13,0,0,0,.853-1.707,34.6,34.6,0,0,0,.155-3.724h.621s.543-.233.931-.388.7-.543,1.086-1.318a8.453,8.453,0,0,0,.543-3.1c-.078-.388-.233-1.164-.621-1.4s-1.241.233-1.241.233l-.4.194.233-.427a11.577,11.577,0,0,0,.465-3.646c0-1.164-.31-3.646-.31-4.189a3.13,3.13,0,0,0-.465-1.629,6.986,6.986,0,0,0-1.319-1.319,2.207,2.207,0,0,0-1.319-.155,10.378,10.378,0,0,0-1.164-2.25,8.5,8.5,0,0,0-1.861-1.241,11.815,11.815,0,0,0-3.879-1.241c-.776,0-.776.077-1.319.077h-.543l-.388.388-1.319.078-.465.465s-.078-.155-.621.078l-.543.233-.233.7-.853.31-.543.543-.621.233.311.62-.776.7a1.211,1.211,0,0,0,.078.7c.155.233-.078.853-.078.853a11.772,11.772,0,0,0-.931,1.629c-.155.466-.465,4.034-.543,5.043a13.2,13.2,0,0,0,.621,3.258s-.854-.466-1.242-.233-.543,1.009-.62,1.4a8.412,8.412,0,0,0,.543,3.1c.388.775.7,1.163,1.086,1.318s.931.388.931.388h.62a34.382,34.382,0,0,0,.156,3.724,11.13,11.13,0,0,0,.853,1.707s.41,3.806.415,5.159A13.5,13.5,0,0,0-207.13-57,13.6,13.6,0,0,0-200.41-59.211Z" transform="translate(240.13 99.692)" fill="#dee7f0"/>
  <path id="Path_3839" data-name="Path 3839" d="M-183.295-50.247c-.776-1.4-3.259-2.637-3.259-2.637a14.68,14.68,0,0,1-1.551-.621c-.621-.31-6.516-3.1-7.913-4.034a23.121,23.121,0,0,0-4.111-1.862s-.1.074-.281.19A13.6,13.6,0,0,1-207.13-57a13.5,13.5,0,0,1-6.586-2.125c-.263-.166-.415-.275-.415-.275a23.151,23.151,0,0,0-4.112,1.862c-1.4.931-7.292,3.724-7.912,4.034a14.75,14.75,0,0,1-1.552.621s-2.482,1.241-3.258,2.637S-235-33.025-235-33.025h55.738S-182.52-48.85-183.295-50.247Z" transform="translate(240.13 99.025)" fill="#c2cedb"/>
</svg>
